<svg version="1.1" id="Layer_1" xmlns="http://www.w3.org/2000/svg" xmlns:xlink="http://www.w3.org/1999/xlink" x="0px" y="0px"
	 width="100%" viewBox="0 0 1024 1024" enable-background="new 0 0 1024 1024" xml:space="preserve">
<path fill="#FFFFFF" opacity="1.000000" stroke="none"
	d="
M1025.000000,388.000000
	C1025.000000,600.666687 1025.000000,812.833313 1025.000000,1025.000000
	C683.666687,1025.000000 342.333344,1025.000000 1.000000,1025.000000
	C1.000000,683.666687 1.000000,342.333344 1.000000,1.000000
	C342.333344,1.000000 683.666687,1.000000 1025.000000,1.000000
	C1025.000000,129.833328 1025.000000,258.666656 1025.000000,388.000000
M141.879059,860.132507
	C141.879059,860.132507 141.738266,860.165833 141.859131,860.594360
	C141.859131,860.594360 142.085876,860.977478 142.150146,861.654968
	C154.647812,879.689819 171.752655,890.930664 193.110809,896.612488
	C193.415207,896.694275 193.719604,896.776062 194.735947,897.019165
	C196.147049,897.260071 197.558151,897.501038 199.619247,898.029419
	C200.087799,897.984253 200.556351,897.939087 201.858612,898.022949
	C204.826965,898.260010 207.795303,898.704163 210.763687,898.704712
	C412.929016,898.738586 615.094299,898.744873 817.259644,898.668701
	C820.579773,898.667480 823.899597,897.624817 827.635376,897.069397
	C827.635376,897.069397 828.020203,896.911865 828.825073,897.034180
	C831.280762,896.375488 833.736450,895.716736 836.604248,895.082458
	C836.604248,895.082458 837.004272,894.981079 837.769775,895.152588
	C841.223511,893.791077 844.677246,892.429565 848.052307,891.036499
	C848.052307,891.036499 848.038330,891.119995 848.670227,891.061646
	C849.187866,890.758972 849.705505,890.456299 850.091003,890.113525
	C850.091003,890.113525 850.096130,890.251587 850.719666,890.129944
	C851.231445,889.816711 851.743225,889.503479 852.107971,889.150391
	C852.107971,889.150391 852.125671,889.301697 852.731750,889.146362
	C853.235168,888.820190 853.738647,888.494080 854.103088,888.124451
	C854.103088,888.124451 854.109802,888.269897 854.718933,888.141785
	C855.199402,887.792725 855.679810,887.443604 856.060364,887.065063
	C856.060364,887.065063 856.058167,887.169250 856.637390,887.030151
	C857.115784,886.697754 857.594177,886.365356 858.024231,885.992554
	C858.024231,885.992554 858.026184,886.055664 858.655884,885.933533
	C859.495911,885.306335 860.335999,884.679138 861.814453,883.905212
	C863.562927,882.338501 865.311401,880.771729 867.573059,878.972717
	C867.752625,878.657043 867.932190,878.341309 868.729858,877.783936
	C872.530884,874.123047 876.712952,870.777710 880.057739,866.738953
	C888.331055,856.749084 893.574951,845.190247 896.096375,832.464722
	C896.704468,829.395874 896.727051,826.211060 897.800476,822.694580
	C897.877075,819.869934 898.020569,817.045227 898.020752,814.220581
	C898.031494,617.643616 898.032471,421.066620 898.023438,224.489655
	C898.023132,218.330994 897.909180,212.172333 897.980835,205.164566
	C896.566956,195.065338 895.274170,184.933517 890.062317,175.944397
	C890.062317,175.944397 890.162109,175.947342 890.029541,175.332031
	C889.704773,174.823517 889.380066,174.314987 889.066895,173.237732
	C888.753113,172.813812 888.439392,172.389893 888.000244,171.388260
	C887.674805,170.907043 887.349426,170.425827 886.990051,169.980774
	C886.990051,169.980774 887.039612,169.981934 886.930786,169.348602
	C886.335205,168.495667 885.739685,167.642731 885.103333,166.927521
	C885.103333,166.927521 885.246948,166.929306 885.018494,166.281036
	C884.696777,165.965103 884.375122,165.649185 884.148926,164.865860
	C883.841736,164.553848 883.534485,164.241837 883.026733,163.384705
	C882.670776,162.929596 882.314819,162.474472 881.864258,161.372696
	C880.908997,160.249863 879.953735,159.127029 878.775696,157.560410
	C878.566895,157.297195 878.315308,157.084625 877.861267,156.270554
	C873.994202,152.820374 870.127136,149.370193 866.034058,145.437561
	C865.623352,145.103653 865.212585,144.769730 864.616028,144.217209
	C864.616028,144.217209 864.357178,144.093384 864.073242,143.786194
	C863.720825,143.590836 863.368408,143.395477 862.568359,142.831451
	C862.089905,142.540298 861.611511,142.249146 860.710571,141.442139
	C859.159363,140.593857 857.608093,139.745560 856.041809,138.984222
	C856.041809,138.984222 856.113586,138.932816 855.763794,138.426819
	C855.192200,138.223984 854.620605,138.021149 853.800781,137.321426
	C853.273315,137.190079 852.745789,137.058716 851.827576,136.339020
	C849.886475,135.574081 847.945435,134.809143 845.682251,133.843719
	C845.682251,133.843719 845.305847,133.890869 844.833191,133.308762
	C839.560120,131.925797 834.287109,130.542816 828.309753,129.126007
	C826.191223,128.799026 824.072754,128.472061 821.037415,127.969009
	C642.537964,127.974274 464.038574,127.972687 285.539154,127.992004
	C258.044952,127.994980 230.550766,128.094040 202.224289,128.013458
	C200.131989,128.348999 198.026016,128.616089 195.949463,129.030548
	C173.025589,133.606018 154.922058,145.427734 141.684296,165.189041
	C141.684296,165.189041 141.559418,165.524734 141.511566,165.655502
	C141.511566,165.655502 141.603241,165.550690 141.150452,165.865921
	C141.014862,166.205811 140.879272,166.545715 140.874420,166.899475
	C140.874420,166.899475 140.838043,166.773132 140.289536,167.107925
	C140.074142,167.709671 139.858749,168.311432 139.219711,169.059906
	C139.119720,169.476974 139.019730,169.894028 138.361710,170.705338
	C138.207809,171.128296 138.053894,171.551239 137.976395,171.964340
	C137.976395,171.964340 137.946075,171.893524 137.454651,172.257355
	C137.275436,172.830017 137.096222,173.402695 136.990265,173.967270
	C136.990265,173.967270 136.953354,173.903473 136.480423,174.298462
	C136.115128,175.029556 135.749832,175.760635 135.410782,176.593109
	C135.410782,176.593109 135.425430,176.696808 135.041687,177.219131
	C134.636169,178.458664 134.230667,179.698196 133.934235,180.929184
	C133.934235,180.929184 133.896942,180.826309 133.366928,181.260056
	C133.149567,182.142944 132.932205,183.025818 132.873749,183.911316
	C132.873749,183.911316 132.828430,183.758987 132.256821,184.250824
	C130.893677,190.839066 129.530518,197.427292 127.987595,204.920517
	C127.981987,406.619934 127.975319,608.319336 127.979179,810.018738
	C127.979248,813.674011 128.105301,817.329224 128.038147,821.829712
	C129.363022,833.188721 132.057053,844.126282 138.006378,854.025696
	C138.006378,854.025696 137.941666,854.027527 138.028503,854.667358
	C138.625198,855.526367 139.221893,856.385437 139.852051,857.102295
	C139.852051,857.102295 139.707672,857.124390 139.893112,857.696228
	C140.246155,858.164307 140.599213,858.632446 140.989899,859.034424
	C140.989899,859.034424 140.913849,859.035156 141.024033,859.581482
	C141.301392,859.812805 141.578766,860.044128 141.879059,860.132507
z"/>
<path fill="#292C31" opacity="1.000000" stroke="none"
	d="
M201.024902,897.893921 
	C200.556351,897.939087 200.087799,897.984253 199.264191,897.606201 
	C198.593185,896.762695 198.277252,896.342346 197.881927,895.769409 
	C197.550354,895.713623 197.298141,895.810608 196.665527,895.923340 
	C195.523895,895.960327 194.762680,895.981628 193.982300,895.746094 
	C193.828827,895.262573 193.694504,895.035828 193.560181,894.809082 
	C193.361893,895.244019 193.163589,895.678955 192.965302,896.113892 
	C171.752655,890.930664 154.647812,879.689819 142.284851,861.206604 
	C142.192459,860.560791 141.965378,860.363281 141.738281,860.165771 
	C141.738266,860.165833 141.879059,860.132507 141.815277,859.925171 
	C141.472275,859.490295 141.193054,859.262756 140.913849,859.035156 
	C140.913849,859.035156 140.989899,859.034424 140.938141,858.741333 
	C140.493484,858.006958 140.100571,857.565674 139.707672,857.124390 
	C139.707672,857.124390 139.852051,857.102295 139.901276,856.799377 
	C139.280869,855.673462 138.611267,854.850525 137.941666,854.027527 
	C137.941666,854.027527 138.006378,854.025696 137.978195,853.649658 
	C136.922653,850.191711 135.748627,847.149658 134.896988,844.019897 
	C132.812653,836.360168 130.877197,828.659973 128.926819,820.518677 
	C128.967575,614.710083 128.963364,409.358887 129.255859,203.745636 
	C130.644531,196.908737 131.736481,190.333862 132.828430,183.758987 
	C132.828430,183.758987 132.873749,183.911316 133.135071,183.773895 
	C133.563232,182.699768 133.730087,181.763031 133.896942,180.826309 
	C133.896942,180.826309 133.934235,180.929184 134.240845,180.826019 
	C134.840103,179.380844 135.132767,178.038818 135.425430,176.696808 
	C135.425430,176.696808 135.410782,176.593109 135.768417,176.572479 
	C136.401810,175.669052 136.677582,174.786270 136.953354,173.903473 
	C136.953354,173.903473 136.990265,173.967270 137.235565,173.829605 
	C137.635925,173.092468 137.791000,172.492996 137.946075,171.893524 
	C137.946075,171.893524 137.976395,171.964340 138.233200,171.790970 
	C138.633240,171.182098 138.776489,170.746597 138.919739,170.311096 
	C139.019730,169.894028 139.119720,169.476974 139.756561,168.862961 
	C140.474945,168.035049 140.656494,167.404083 140.838043,166.773132 
	C140.838043,166.773132 140.874420,166.899475 141.098267,166.790985 
	C141.415802,166.305222 141.509521,165.927963 141.603241,165.550690 
	C141.603241,165.550690 141.511566,165.655502 141.737061,165.662933 
	C142.100357,165.659973 142.238144,165.649612 142.375946,165.639236 
	C142.245911,165.424759 142.115875,165.210266 141.985840,164.995789 
	C154.922058,145.427734 173.025589,133.606018 195.949463,129.030548 
	C198.026016,128.616089 200.131989,128.348999 202.940338,128.363113 
	C204.976990,128.806030 206.297623,128.980942 207.618240,128.981018 
	C410.816711,128.992020 614.015137,128.992310 817.213623,128.954422 
	C818.793884,128.954132 820.374023,128.426514 821.954224,128.145096 
	C824.072754,128.472061 826.191223,128.799026 828.718262,129.505890 
	C834.127747,132.804779 839.272522,135.142563 845.305847,133.890869 
	C845.305847,133.890869 845.682251,133.843719 845.891479,134.309784 
	C848.139954,135.493027 850.179138,136.210205 852.218323,136.927368 
	C852.745789,137.058716 853.273315,137.190079 854.057617,137.863342 
	C854.914124,138.581100 855.513855,138.756958 856.113586,138.932816 
	C856.113586,138.932816 856.041809,138.984222 856.067871,139.305817 
	C857.773621,140.404251 859.453369,141.181122 861.133057,141.958008 
	C861.611511,142.249146 862.089905,142.540298 862.842285,143.301880 
	C863.529907,143.879318 863.943542,143.986343 864.357178,144.093384 
	C864.357178,144.093384 864.616028,144.217209 864.581787,144.653534 
	C865.118347,145.366592 865.689209,145.643311 866.260010,145.920029 
	C870.127136,149.370193 873.994202,152.820374 877.970947,156.835541 
	C878.386597,157.601761 878.692505,157.802994 878.998413,158.004211 
	C879.953735,159.127029 880.908997,160.249863 881.670288,161.872589 
	C882.059998,162.891571 882.643677,163.410690 883.227295,163.929810 
	C883.534485,164.241837 883.841736,164.553848 884.196289,165.442627 
	C884.578064,166.322693 884.912537,166.625992 885.246948,166.929291 
	C885.246948,166.929306 885.103333,166.927521 885.073608,167.231476 
	C885.709106,168.350922 886.374390,169.166412 887.039612,169.981934 
	C887.039612,169.981934 886.990051,169.980774 887.059570,170.272980 
	C887.461243,171.032120 887.793396,171.499054 888.125610,171.965973 
	C888.439392,172.389893 888.753113,172.813812 889.078491,173.854965 
	C889.447449,174.963913 889.804749,175.455627 890.162109,175.947357 
	C890.162109,175.947342 890.062317,175.944397 890.042419,176.305496 
	C891.540405,182.152618 893.184570,187.607773 894.535461,193.134613 
	C895.575684,197.390671 896.247437,201.736801 897.059814,206.504303 
	C897.030701,412.336975 897.024719,617.708252 897.018799,823.079529 
	C896.727051,826.211060 896.704468,829.395874 896.096375,832.464722 
	C893.574951,845.190247 888.331055,856.749084 880.057739,866.738953 
	C876.712952,870.777710 872.530884,874.123047 868.169250,878.022583 
	C867.425720,878.575745 867.242737,878.890381 867.059814,879.204956 
	C865.311401,880.771729 863.562927,882.338501 861.122070,883.963623 
	C859.628601,884.699890 858.827393,885.377808 858.026184,886.055664 
	C858.026184,886.055664 858.024231,885.992554 857.732300,886.054810 
	C856.979614,886.467712 856.518860,886.818481 856.058105,887.169189 
	C856.058167,887.169250 856.060364,887.065063 855.774414,887.075928 
	C855.028931,887.481201 854.569397,887.875549 854.109802,888.269897 
	C854.109802,888.269897 854.103088,888.124451 853.827271,888.121277 
	C853.076172,888.512634 852.600891,888.907166 852.125671,889.301697 
	C852.125671,889.301697 852.107971,889.150391 851.837158,889.129028 
	C851.076233,889.488953 850.586182,889.870239 850.096069,890.251587 
	C850.096130,890.251587 850.091003,890.113525 849.822876,890.106262 
	C849.049255,890.439331 848.543823,890.779663 848.038330,891.119995 
	C848.038330,891.119995 848.052307,891.036499 847.680664,891.045471 
	C843.874023,892.363281 840.439148,893.672180 837.004272,894.981079 
	C837.004272,894.981079 836.604248,895.082458 835.978760,895.040039 
	C832.908936,895.635742 830.464539,896.273804 828.020203,896.911865 
	C828.020203,896.911865 827.635376,897.069397 826.978455,897.023926 
	C824.519104,896.954834 822.716736,896.931213 820.622925,896.625366 
	C813.277954,896.228699 806.223816,896.011169 799.171082,896.048340 
	C796.139465,896.064331 793.110718,896.609009 789.650757,896.936035 
	C787.786621,896.942627 786.352234,896.926697 784.648315,896.637146 
	C781.613586,896.545349 778.848450,896.727173 775.643799,896.932495 
	C773.443970,896.938782 771.683655,896.921570 769.751221,896.670044 
	C768.744751,896.592102 767.910461,896.748535 766.615479,896.930054 
	C763.076111,896.940186 759.997437,896.925110 756.666992,896.643799 
	C754.303894,896.555237 752.192383,896.732971 749.685791,896.932861 
	C748.499573,896.940247 747.708496,896.925598 746.626221,896.627686 
	C737.297302,896.229675 728.259644,896.055664 719.221863,896.044922 
	C717.175781,896.042542 715.129028,896.607300 712.610840,896.934814 
	C707.065002,896.942078 701.990906,896.925476 696.654907,896.638672 
	C693.956177,896.548889 691.519348,896.729248 688.609375,896.933533 
	C670.063660,896.942139 651.991150,896.926819 633.649170,896.637817 
	C630.614136,896.545776 627.848694,896.727417 624.636108,896.932434 
	C622.100098,896.938110 620.011292,896.920471 617.750183,896.668884 
	C616.744080,896.591553 615.910156,896.748169 614.648560,896.929504 
	C612.793579,896.937927 611.366333,896.921570 609.842651,896.700928 
	C609.550720,896.249573 609.301086,896.083740 608.597961,895.998779 
	C607.132324,895.998962 606.066223,895.999390 604.625122,895.999756 
	C603.500000,895.999817 602.749878,895.999817 601.599731,895.999207 
	C600.133057,895.999084 599.066528,895.999573 597.599854,896.000000 
	C595.494385,896.302185 593.789062,896.604309 591.612549,896.930908 
	C586.400513,896.940308 581.659607,896.925232 576.667114,896.643860 
	C574.304504,896.554688 572.193542,896.731812 569.621338,896.932861 
	C566.078857,896.940674 562.997559,896.924622 559.646545,896.635498 
	C556.612854,896.544067 553.848938,896.725647 550.614990,896.931641 
	C545.739197,896.937744 541.333435,896.919617 536.795532,896.692017 
	C536.132996,896.622253 535.602539,896.761963 534.643555,896.927246 
	C532.784546,896.936829 531.354126,896.920776 529.751709,896.670654 
	C528.745972,896.591614 527.912354,896.746704 526.605835,896.927734 
	C519.061035,896.938843 511.988983,896.924072 504.647339,896.635986 
	C501.613037,896.544678 498.848358,896.726685 495.636169,896.932190 
	C493.097595,896.939819 491.006592,896.923889 488.645996,896.634888 
	C485.612183,896.544067 482.848022,896.726318 479.615173,896.932617 
	C475.073944,896.938965 471.001404,896.921265 466.796600,896.693665 
	C466.133209,896.623779 465.602081,896.763794 464.598572,896.929810 
	C457.056335,896.939819 449.986450,896.923828 442.664917,896.641846 
	C440.302734,896.553894 438.192139,896.731873 435.608582,896.933777 
	C428.729492,896.940796 422.323364,896.923889 415.678284,896.645874 
	C413.653381,896.559509 411.867371,896.734131 409.687073,896.931152 
	C408.503510,896.937927 407.714264,896.922180 406.752747,896.671753 
	C405.745239,896.593567 404.910034,896.750183 403.603577,896.931885 
	C398.061096,896.940308 392.989868,896.923584 387.696655,896.652161 
	C386.011292,896.565918 384.547913,896.734375 382.667725,896.927063 
	C381.138245,896.935974 380.025574,896.920593 378.636780,896.630127 
	C375.267731,896.540527 372.174805,896.725891 368.610138,896.934814 
	C363.064667,896.941711 357.990936,896.924988 352.665588,896.642212 
	C350.303375,896.553894 348.192810,896.731567 345.609009,896.933228 
	C337.063599,896.940613 328.991394,896.923950 320.696930,896.652466 
	C319.009613,896.568054 317.544556,896.738586 315.618469,896.933228 
	C312.077301,896.941772 308.997131,896.926147 305.626221,896.627563 
	C299.584961,896.532898 293.834412,896.721191 287.610657,896.933594 
	C280.065979,896.940552 272.994537,896.923584 265.723206,896.656921 
	C264.682159,896.271423 263.841064,896.135681 262.624939,895.999878 
	C261.500000,895.999878 260.750031,895.999878 259.531403,895.999878 
	C246.708466,895.999817 234.354187,895.999878 221.624939,895.999878 
	C220.500000,895.999878 219.750031,895.999878 218.554276,895.999878 
	C215.100403,896.302795 212.092316,896.605835 208.652435,896.931885 
	C205.822052,897.267822 203.423477,897.580872 201.024902,897.893921 
M440.005188,662.991394 
	C440.005188,662.991394 439.950165,662.990051 440.485626,662.665588 
	C440.629456,662.073181 440.773315,661.480713 440.931000,660.977051 
	C440.931000,660.977051 440.841431,660.970154 441.490295,660.616272 
	C442.017578,657.420959 442.544830,654.225708 443.034515,650.468018 
	C443.219666,649.956116 443.404816,649.444214 444.312866,648.662537 
	C444.685791,648.125854 445.255127,647.638000 445.402222,647.045288 
	C447.618683,638.114380 449.805908,629.175781 451.897156,620.214966 
	C452.043793,619.586487 451.384064,618.769836 450.991028,617.503540 
	C450.960358,617.323486 450.929718,617.143433 451.067627,616.600647 
	C451.119812,616.325623 451.255951,616.101624 452.113983,615.762268 
	C452.139984,614.864258 452.165985,613.966187 452.169312,612.559326 
	C452.238556,612.060242 452.307770,611.561157 452.676880,610.522217 
	C452.699341,610.317566 452.721802,610.112976 452.942444,609.156494 
	C454.583466,602.443848 456.224457,595.731201 458.017059,588.394592 
	C458.087769,587.973572 458.158447,587.552551 458.613586,586.514954 
	C459.085083,584.346313 459.556610,582.177612 460.690552,580.294373 
	C461.512817,582.466980 462.365540,584.628601 463.152313,586.813965 
	C467.536560,598.992004 471.358704,611.408997 476.431427,623.292419 
	C481.554871,635.294678 492.554047,637.664917 503.441620,629.722534 
	C503.606567,629.386414 503.771545,629.050293 504.008820,628.188477 
	C504.334198,627.791077 504.659607,627.393677 505.695282,626.898438 
	C506.100616,625.892273 506.505920,624.886169 506.944946,623.961609 
	C506.944946,623.961609 506.857727,623.975098 507.507233,623.602600 
	C507.962952,622.728271 508.674316,621.898621 508.835999,620.972900 
	C511.263733,607.072937 513.675049,593.169312 515.916809,579.238586 
	C516.181274,577.595337 515.422058,575.787354 515.069885,573.234192 
	C525.311279,509.465912 535.552673,445.697601 545.933838,381.207916 
	C545.970398,380.474304 546.006897,379.740692 546.554749,378.700378 
	C546.729004,378.604736 546.903198,378.509094 547.637695,379.097015 
	C549.758850,394.064636 551.879944,409.032227 554.009033,424.854675 
	C554.346985,427.319641 554.663635,429.787720 555.026184,432.249054 
	C559.595825,463.271515 564.202148,494.288635 568.737427,525.316101 
	C572.575439,551.573120 576.271423,577.851013 580.147644,604.102295 
	C582.855713,622.442444 585.762085,640.753418 588.517334,659.857666 
	C589.716736,667.553833 590.916077,675.249939 592.088623,683.779602 
	C592.777527,688.197021 593.316650,692.644043 594.184814,697.025940 
	C596.362122,708.016357 608.590332,713.327637 617.185669,706.472473 
	C620.376221,703.927856 622.752869,699.310791 623.741577,695.214233 
	C640.415894,626.128052 656.806580,556.973450 673.283386,487.839569 
	C674.325012,483.469269 675.556885,479.144318 676.700195,474.798279 
	C683.291504,496.268188 689.186218,517.524902 694.765198,538.864197 
	C696.663696,546.125977 699.789368,552.167664 707.250427,556.341064 
	C709.302551,556.894409 711.353088,557.923096 713.406982,557.929810 
	C744.516357,558.031433 775.626648,558.071472 806.734924,557.856323 
	C809.142151,557.839661 811.535522,555.810486 814.370850,554.236694 
	C816.163147,552.130371 817.955444,550.024048 819.938110,547.488892 
	C819.938110,547.488892 819.946655,547.019714 820.112976,546.713013 
	C820.112976,546.713013 820.078857,546.365845 820.645752,545.752930 
	C820.442627,543.142700 820.239563,540.532410 820.009766,537.987732 
	C820.009766,537.987732 820.080139,537.980530 819.950317,537.388977 
	C819.650940,537.224915 819.351501,537.060852 819.053406,536.982056 
	C819.053406,536.982056 819.137146,536.965942 819.395813,536.286377 
	C818.942200,535.480286 818.488647,534.674255 817.948975,533.454956 
	C817.832764,533.168396 817.622742,532.996277 817.007263,532.442444 
	C816.682312,532.233459 816.357300,532.024414 815.862305,531.391357 
	C815.656616,531.140320 815.391846,531.004211 814.730469,530.469971 
	C814.159180,530.272217 813.587891,530.074402 813.015198,529.956360 
	C813.015198,529.956360 813.094116,529.944519 812.658508,529.426697 
	C811.406921,528.970032 810.155396,528.513306 809.479553,527.876404 
	C809.600708,527.654358 809.721924,527.432373 809.843079,527.210327 
	C809.388916,527.142334 808.934875,527.014954 808.480652,527.014648 
	C779.302307,526.996155 750.123962,526.987976 720.589355,526.323669 
	C718.033630,516.697144 715.453064,507.077179 712.926941,497.442902 
	C706.312439,472.215973 699.797913,446.962524 693.087341,421.761261 
	C690.059143,410.388885 679.561890,405.463989 670.014465,410.632019 
	C664.754944,413.479004 662.352661,418.330841 661.007507,423.803497 
	C654.351990,450.880249 647.759399,477.972443 640.938660,505.805634 
	C639.523193,511.854431 638.107727,517.903198 636.286133,524.355103 
	C636.230042,524.917969 636.173950,525.480774 635.934082,526.666931 
	C635.844727,527.090881 635.755310,527.514771 635.260010,528.349426 
	C635.214172,528.915527 635.168335,529.481567 634.915466,530.625854 
	C634.704285,531.402527 634.493042,532.179260 633.996094,533.700989 
	C626.773010,563.792358 619.549988,593.883667 612.326904,623.975037 
	C611.885620,623.945923 611.444275,623.916809 611.002991,623.887756 
	C609.985535,615.116577 608.968140,606.345459 607.854980,596.983521 
	C607.622253,596.673767 607.389526,596.364014 607.047119,595.363098 
	C607.057983,594.896851 607.068848,594.430603 607.641541,593.426697 
	C607.757080,592.452087 608.096436,591.443237 607.953491,590.508179 
	C606.487671,580.923157 605.018677,571.337280 603.382812,561.780396 
	C602.762146,558.154358 601.707092,554.602600 600.942261,551.019958 
	C600.942261,551.019958 600.921204,551.109802 600.946533,550.524536 
	C600.688416,550.037476 600.430298,549.550476 600.044556,548.386902 
	C600.020508,547.929321 599.996460,547.471741 600.557800,546.538208 
	C600.261414,544.892090 599.965088,543.246033 599.136536,541.110962 
	C597.419983,530.091492 595.647888,519.080322 594.001343,508.050446 
	C592.006897,494.690155 590.118652,481.314056 588.478149,467.781372 
	C588.371521,467.536804 588.264893,467.292236 588.033447,466.374176 
	C588.018250,465.918091 588.003113,465.462036 588.575378,464.510620 
	C587.536072,455.973053 586.632996,447.415588 585.391174,438.907562 
	C584.886536,435.450409 583.645081,432.100800 582.390381,428.315002 
	C582.557190,428.046783 582.724060,427.778564 583.162476,427.191681 
	C583.144714,426.998749 583.126892,426.805786 583.109070,426.612885 
	C582.902405,426.785645 582.695679,426.958405 582.157898,426.435028 
	C579.159058,406.601868 576.160156,386.768738 573.692566,366.362183 
	C572.960327,359.573822 572.341919,352.770081 571.426697,346.006470 
	C571.150085,343.962341 570.050964,342.029480 569.056946,339.236725 
	C566.689087,323.354828 564.414001,307.458282 561.914001,291.597198 
	C560.667786,283.690613 554.804810,278.935089 546.984497,278.973877 
	C539.343384,279.011780 534.397522,283.527832 532.984558,291.734924 
	C531.245056,301.838654 529.492981,311.940186 527.122009,322.155151 
	C527.119080,323.125061 527.116211,324.095001 527.093018,325.731018 
	C527.019043,326.168854 526.945129,326.606689 526.226501,327.407501 
	C524.968811,333.642609 523.517151,339.846313 522.501404,346.120575 
	C521.160339,354.404022 520.161194,362.742798 518.982971,371.492584 
	C518.982971,371.492584 519.019043,371.927032 519.046082,372.675293 
	C519.061890,372.924377 519.077759,373.173462 519.134949,373.736420 
	C519.134949,373.736420 518.975586,374.010010 518.514648,374.270660 
	C518.648132,374.836029 518.781616,375.401398 518.936584,376.812286 
	C516.774231,390.732269 514.677185,404.662750 512.435791,418.569977 
	C507.951172,446.395416 503.412567,474.212280 498.848602,502.024841 
	C495.160950,524.497070 491.403351,546.957886 487.676819,569.423828 
	C485.281036,564.779541 483.655640,559.996033 481.988495,555.227112 
	C479.029053,546.761414 476.331146,538.188599 472.971344,529.884155 
	C470.652618,524.152893 466.386993,520.567871 459.551697,520.592163 
	C452.734406,520.616333 448.138794,523.683777 445.313446,529.606384 
	C444.033844,532.288757 442.947510,535.116455 442.197113,537.988831 
	C439.052429,550.026428 436.073914,562.107422 433.023010,574.169556 
	C431.000458,582.166077 428.958435,590.157715 426.925110,598.151489 
	C426.668396,598.103577 426.411713,598.055664 426.154999,598.007751 
	C418.662933,565.326416 411.170868,532.645081 403.640411,499.205322 
	C398.369812,476.160004 393.099243,453.114655 387.799530,429.329987 
	C384.712891,419.380768 379.236267,415.120605 370.382416,416.064301 
	C363.140045,416.836182 359.985657,422.409912 356.244720,428.117828 
	C355.875702,429.118958 355.506683,430.120087 355.115540,431.018097 
	C355.115540,431.018097 355.200836,431.080109 354.608948,431.332245 
	C354.455902,431.924957 354.302826,432.517700 354.024078,433.028503 
	C354.024078,433.028503 354.167542,433.072388 353.521057,433.406189 
	C352.697296,436.300171 351.873566,439.194183 351.026428,442.016418 
	C351.026428,442.016418 351.101898,442.016785 350.530334,442.349670 
	C350.374756,442.973450 350.219147,443.597260 350.054779,444.632874 
	C350.054779,444.632874 349.933014,445.026428 349.411133,445.442505 
	C349.305634,446.092957 349.200134,446.743439 349.125488,447.723541 
	C349.125488,447.723541 348.966797,448.014130 348.461975,448.358704 
	C348.333008,448.942474 348.204010,449.526245 348.062897,450.028870 
	C348.062897,450.028870 348.144501,450.037262 347.418823,450.330505 
	C346.971436,452.059601 346.524048,453.788727 346.131775,455.791260 
	C346.131775,455.791260 345.966034,456.015594 345.448364,456.392059 
	C345.320557,457.008728 345.192780,457.625366 345.059814,458.649536 
	C345.059814,458.649536 344.889587,459.019806 344.142792,459.175140 
	C343.789307,460.609619 343.435791,462.044067 343.118500,463.771027 
	C343.118500,463.771027 342.946716,464.010529 342.240540,464.121613 
	C340.858063,468.115295 339.475586,472.108978 338.152710,476.035828 
	C338.152710,476.035828 338.211670,476.103180 337.806488,476.167603 
	C337.705261,476.255219 337.604065,476.342834 337.502869,476.430481 
	C337.668579,476.620331 337.834290,476.810150 338.013611,477.574524 
	C337.767059,478.068787 337.520538,478.563049 336.546997,479.280731 
	C336.058289,480.889435 335.569611,482.498138 335.084198,484.024597 
	C335.084198,484.024597 335.162354,484.050476 334.662872,484.224915 
	C334.696686,484.789825 334.730530,485.354736 334.667053,486.634979 
	C334.089478,488.185272 333.547882,489.750061 332.928497,491.283447 
	C328.665833,501.836487 324.386871,512.382996 319.751190,523.121216 
	C319.662689,523.221741 319.481476,523.384399 319.500488,523.412720 
	C319.640320,523.621216 319.820190,523.802979 320.004120,524.656677 
	C319.632416,525.447937 319.260712,526.239258 317.967743,526.997803 
	C286.237061,527.002075 254.506271,526.978821 222.775894,527.078735 
	C220.855820,527.084778 218.938828,528.070862 217.111588,528.828613 
	C217.111588,528.828613 217.038391,529.062805 216.332108,529.105225 
	C210.481155,531.601624 207.072403,535.889404 207.184494,542.382019 
	C207.281906,548.022766 209.403076,552.602173 215.538101,555.035767 
	C215.708572,555.052368 215.879044,555.068909 216.249649,555.215088 
	C216.249649,555.215088 216.425552,555.054016 216.727097,555.530823 
	C216.850098,555.672546 216.973083,555.814209 216.674530,556.434326 
	C217.889053,556.956238 219.102570,557.931335 220.318283,557.934082 
	C255.853119,558.014832 291.388641,558.074402 326.922211,557.846191 
	C329.597351,557.829041 332.258636,555.651001 335.429688,554.089539 
	C341.082886,550.820618 342.855591,544.933716 344.965240,539.433960 
	C352.299988,520.312439 359.421967,501.109283 367.302673,481.659027 
	C367.510773,480.740723 367.718872,479.822418 367.859375,478.942047 
	C367.859375,478.942047 367.825195,478.872437 368.592285,479.087402 
	C369.017273,479.545197 369.713684,479.944214 369.827332,480.469391 
	C372.276428,491.784393 374.619873,503.122406 377.115967,514.426758 
	C377.382294,515.632996 378.466644,516.658630 379.689697,518.350403 
	C382.151245,529.523071 384.598541,540.698975 387.076935,551.867859 
	C395.009460,587.615417 402.964447,623.357910 410.884003,659.108337 
	C412.464844,666.244751 416.288635,671.182617 423.819824,672.428467 
	C430.573303,673.545715 435.143799,669.980652 439.480011,664.673218 
	C439.644928,664.097351 439.809814,663.521423 440.005188,662.991394 
M241.766220,277.278595 
	C241.524567,277.554779 241.282928,277.830933 241.040039,278.026703 
	C241.040039,278.026703 241.112839,278.060913 240.366241,278.044159 
	C239.603973,278.743256 238.841690,279.442352 238.058502,280.051147 
	C238.058502,280.051147 238.144028,280.086823 237.395340,280.023651 
	C236.625153,280.733032 235.854965,281.442413 235.067795,282.061584 
	C235.067795,282.061584 235.153976,282.093109 234.395020,282.033508 
	C233.640015,282.758453 232.885025,283.483398 232.109650,284.110657 
	C232.109650,284.110657 232.205322,284.139038 231.507034,284.093079 
	C231.103165,284.555054 230.699310,285.016998 230.204071,285.268433 
	C230.204071,285.268433 230.433487,285.275391 229.802109,285.337921 
	C229.567169,285.668976 229.332230,286.000000 228.963028,286.760071 
	C228.733154,286.988953 228.457428,287.082001 227.473373,287.075867 
	C227.012650,287.468048 226.551926,287.860199 226.076279,288.116394 
	C226.076279,288.116394 226.210129,288.144501 225.504181,288.092957 
	C225.146164,288.578308 224.788147,289.063660 224.180374,289.084595 
	C224.275696,289.232269 224.371002,289.379974 223.748077,289.273865 
	C223.184494,289.912048 222.620895,290.550262 221.834122,291.737427 
	C220.969666,292.516052 220.105209,293.294647 218.481384,294.088348 
	C214.271286,298.415009 213.730225,304.592133 217.820419,308.250336 
	C218.893570,309.789001 219.966721,311.327667 221.054947,313.549805 
	C221.737411,314.023560 222.419861,314.497314 223.855896,315.036377 
	C226.080917,314.796173 228.574356,315.116180 230.477493,314.204224 
	C235.049194,312.013611 239.336075,309.231232 243.752838,306.713928 
	C247.512375,304.571198 251.402451,302.636932 255.044327,300.312103 
	C268.516693,291.711945 281.690247,282.619720 295.406036,274.432678 
	C305.568054,268.366882 308.776459,255.851410 301.143372,247.979858 
	C297.362091,244.080444 292.214081,241.419998 287.467865,238.558136 
	C270.020020,228.037537 252.477432,217.674164 234.980103,207.235519 
	C230.746582,204.709869 223.895386,204.198318 221.287888,206.277527 
	C213.592560,212.413742 214.803909,226.020493 223.509094,231.045959 
	C229.777985,234.664963 236.074234,238.236496 242.345337,241.851654 
	C249.947388,246.234055 257.577271,250.570480 265.115723,255.060043 
	C270.236511,258.109772 270.223724,259.611481 265.322083,262.708679 
	C259.887665,266.142456 254.426010,269.533203 248.631393,272.467255 
	C248.111938,273.022461 247.592484,273.577667 247.068298,274.044678 
	C247.068298,274.044678 247.147476,274.083801 246.401169,274.058838 
	C245.616776,274.737610 244.832382,275.416351 244.041565,276.014679 
	C244.041565,276.014679 244.111786,276.054382 243.450058,276.118988 
	C243.027328,276.538147 242.604599,276.957306 242.141830,277.178223 
	C242.141830,277.178223 242.341705,277.209015 241.766220,277.278595 
M351.456238,332.958282 
	C359.303589,326.742798 359.523804,319.669678 351.782440,312.587158 
	C351.411560,312.416870 351.040649,312.246582 350.290222,312.150909 
	C350.290222,312.150909 349.976166,311.925079 349.598328,311.240814 
	C348.550507,310.842194 347.505005,310.104431 346.454468,310.097137 
	C335.349823,310.020294 324.243866,310.014313 313.140015,310.141998 
	C312.102783,310.153900 311.077576,311.213898 309.291504,312.014618 
	C307.788879,312.697266 305.862976,312.999664 304.852509,314.124451 
	C298.461700,321.238464 299.290070,327.846222 307.437866,334.169739 
	C308.017944,334.424988 308.597168,334.900787 309.178223,334.903046 
	C322.036133,334.953735 334.894562,334.990570 347.751770,334.890289 
	C348.826904,334.881897 349.894257,333.883301 351.456238,332.958282 
z"/>
<path fill="#111216" opacity="1.000000" stroke="none" 
	d="
M769.923401,896.904419 
	C771.683655,896.921570 773.443970,896.938782 776.082642,896.950745 
	C779.613403,896.933960 782.265625,896.922363 784.917908,896.910767 
	C786.352234,896.926697 787.786621,896.942627 790.109985,896.953613 
	C800.970764,896.935059 810.942505,896.921326 820.914307,896.907593 
	C822.716736,896.931213 824.519104,896.954834 826.770508,897.023254 
	C823.899597,897.624817 820.579773,898.667480 817.259644,898.668701 
	C615.094299,898.744873 412.929016,898.738586 210.763687,898.704712 
	C207.795303,898.704163 204.826965,898.260010 201.441757,897.958435 
	C203.423477,897.580872 205.822052,897.267822 209.096558,896.950439 
	C212.981247,896.961243 215.990005,896.976562 219.374069,896.995361 
	C220.499985,896.996643 221.250595,896.994324 222.469681,896.980591 
	C235.291702,896.976807 247.645233,896.984375 260.374237,896.995300 
	C261.500214,896.996338 262.250732,896.994080 263.367371,896.979553 
	C264.463379,896.947083 265.193268,896.926819 265.923126,896.906616 
	C272.994537,896.923584 280.065979,896.940552 288.068726,896.951477 
	C294.639008,896.933777 300.277985,896.922119 305.916962,896.910522 
	C308.997131,896.926147 312.077301,896.941772 316.020386,896.951599 
	C318.228577,896.933044 319.573883,896.920166 320.919189,896.907349 
	C328.991394,896.923950 337.063599,896.940613 346.034119,896.951416 
	C348.927368,896.933167 350.922272,896.920715 352.917206,896.908325 
	C357.990936,896.924988 363.064667,896.941711 369.053680,896.952759 
	C372.950256,896.933167 375.931580,896.919189 378.912872,896.905151 
	C380.025574,896.920593 381.138245,896.935974 383.068970,896.946655 
	C385.230835,896.930237 386.574738,896.918579 387.918610,896.906860 
	C392.989868,896.923584 398.061096,896.940308 403.958984,896.950500 
	C405.498749,896.931519 406.211853,896.919006 406.924988,896.906494 
	C407.714264,896.922180 408.503510,896.937927 410.102112,896.949463 
	C412.580017,896.932556 414.248627,896.919739 415.917236,896.906982 
	C422.323364,896.923889 428.729492,896.940796 436.033783,896.951782 
	C438.926819,896.933105 440.921661,896.920471 442.916534,896.907837 
	C449.986450,896.923828 457.056335,896.939819 464.907654,896.947754 
	C466.102295,896.927612 466.515564,896.915588 466.928833,896.903503 
	C471.001404,896.921265 475.073944,896.938965 480.053955,896.950806 
	C483.612823,896.932617 486.264191,896.920288 488.915588,896.908020 
	C491.006592,896.923889 493.097595,896.939819 496.074982,896.950562 
	C499.613220,896.933350 502.265106,896.921326 504.916962,896.909302 
	C511.988983,896.924072 519.061035,896.938843 526.960510,896.947388 
	C528.499878,896.929077 529.211792,896.916870 529.923706,896.904785 
	C531.354126,896.920776 532.784546,896.936829 534.952209,896.945557 
	C536.102173,896.925903 536.514893,896.913635 536.927612,896.901367 
	C541.333435,896.919617 545.739197,896.937744 551.053711,896.949951 
	C554.613647,896.932129 557.264954,896.920349 559.916260,896.908569 
	C562.997559,896.924622 566.078857,896.940674 570.046509,896.950989 
	C572.928162,896.933594 574.923462,896.921875 576.918762,896.910156 
	C581.659607,896.925232 586.400513,896.940308 592.030212,896.949768 
	C594.609009,896.936829 596.298889,896.929443 598.390015,896.947205 
	C599.861450,896.977539 600.931641,896.982666 602.376343,896.992310 
	C603.500000,896.993896 604.249084,896.990906 605.400330,896.986267 
	C606.873657,896.950500 607.944763,896.916382 609.246338,896.902832 
	C609.476746,896.923340 609.939026,896.905273 609.939026,896.905273 
	C611.366333,896.921570 612.793579,896.937927 615.003479,896.948486 
	C616.498169,896.929504 617.210327,896.916199 617.922424,896.902832 
	C620.011292,896.920471 622.100098,896.938110 625.075073,896.950806 
	C628.613647,896.934448 631.266174,896.922974 633.918701,896.911499 
	C651.991150,896.926819 670.063660,896.942139 689.041870,896.951660 
	C692.270752,896.933472 694.593811,896.921143 696.916870,896.908813 
	C701.990906,896.925476 707.065002,896.942078 713.069702,896.952759 
	C724.972778,896.934814 735.945068,896.922852 746.917419,896.910950 
	C747.708496,896.925598 748.499573,896.940247 750.111084,896.950928 
	C752.927307,896.934570 754.922974,896.922302 756.918701,896.910034 
	C759.997437,896.925110 763.076111,896.940186 766.970520,896.949097 
	C768.498596,896.930054 769.210999,896.917236 769.923401,896.904419 
z"/>
<path fill="#000103" opacity="1.000000" stroke="none" 
	d="
M821.495850,128.057053 
	C820.374023,128.426514 818.793884,128.954132 817.213623,128.954422 
	C614.015137,128.992310 410.816711,128.992020 207.618240,128.981018 
	C206.297623,128.980942 204.976990,128.806030 203.356476,128.430710 
	C230.550766,128.094040 258.044952,127.994980 285.539154,127.992004 
	C464.038574,127.972687 642.537964,127.974274 821.495850,128.057053 
z"/>
<path fill="#000001" opacity="1.000000" stroke="none" 
	d="
M897.409668,822.887085 
	C897.024719,617.708252 897.030701,412.336975 897.250549,206.491974 
	C897.464478,206.018219 897.848206,206.013672 897.848206,206.013672 
	C897.909180,212.172333 898.023132,218.330994 898.023438,224.489655 
	C898.032471,421.066620 898.031494,617.643616 898.020752,814.220581 
	C898.020569,817.045227 897.877075,819.869934 897.409668,822.887085 
z"/>
<path fill="#000001" opacity="1.000000" stroke="none" 
	d="
M128.959152,204.007645 
	C128.963364,409.358887 128.967575,614.710083 128.750000,820.518799 
	C128.528214,820.976257 128.172562,820.984497 128.172562,820.984497 
	C128.105301,817.329224 127.979248,813.674011 127.979179,810.018738 
	C127.975319,608.319336 127.981987,406.619934 128.275452,204.467224 
	C128.563293,204.013916 128.959152,204.007645 128.959152,204.007645 
z"/>
<path fill="#111216" opacity="1.000000" stroke="none" 
	d="
M128.105347,821.407104 
	C128.172562,820.984497 128.528214,820.976257 128.705017,820.976135 
	C130.877197,828.659973 132.812653,836.360168 134.896988,844.019897 
	C135.748627,847.149658 136.922653,850.191711 137.957108,853.674194 
	C132.057053,844.126282 129.363022,833.188721 128.105347,821.407104 
z"/>
<path fill="#111216" opacity="1.000000" stroke="none" 
	d="
M897.914551,205.589111 
	C897.848206,206.013672 897.464478,206.018219 897.273804,206.030548 
	C896.247437,201.736801 895.575684,197.390671 894.535461,193.134613 
	C893.184570,187.607773 891.540405,182.152618 890.056763,176.257660 
	C895.274170,184.933517 896.566956,195.065338 897.914551,205.589111 
z"/>
<path fill="#1A1C20" opacity="1.000000" stroke="none" 
	d="
M845.069519,133.599823 
	C839.272522,135.142563 834.127747,132.804779 829.070435,129.522812 
	C834.287109,130.542816 839.560120,131.925797 845.069519,133.599823 
z"/>
<path fill="#111216" opacity="1.000000" stroke="none" 
	d="
M129.255859,203.745636 
	C128.959152,204.007645 128.563293,204.013916 128.365326,204.014725 
	C129.530518,197.427292 130.893677,190.839066 132.542633,184.004913 
	C131.736481,190.333862 130.644531,196.908737 129.255859,203.745636 
z"/>
<path fill="#111216" opacity="1.000000" stroke="none" 
	d="
M837.387024,895.066772 
	C840.439148,893.672180 843.874023,892.363281 847.719971,891.061279 
	C844.677246,892.429565 841.223511,893.791077 837.387024,895.066772 
z"/>
<path fill="#1A1C20" opacity="1.000000" stroke="none" 
	d="
M852.022949,136.633209 
	C850.179138,136.210205 848.139954,135.493027 846.052551,134.410019 
	C847.945435,134.809143 849.886475,135.574081 852.022949,136.633209 
z"/>
<path fill="#111216" opacity="1.000000" stroke="none" 
	d="
M828.422607,896.973022 
	C830.464539,896.273804 832.908936,895.635742 835.772705,895.027832 
	C833.736450,895.716736 831.280762,896.375488 828.422607,896.973022 
z"/>
<path fill="#1A1C20" opacity="1.000000" stroke="none" 
	d="
M860.921814,141.700073 
	C859.453369,141.181122 857.773621,140.404251 856.075439,139.262329 
	C857.608093,139.745560 859.159363,140.593857 860.921814,141.700073 
z"/>
<path fill="#111216" opacity="1.000000" stroke="none" 
	d="
M194.001480,896.002930 
	C194.762680,895.981628 195.523895,895.960327 196.893860,895.941223 
	C197.502625,895.943420 197.961319,895.922058 197.961304,895.922058 
	C198.277252,896.342346 198.593185,896.762695 198.939178,897.462463 
	C197.558151,897.501038 196.147049,897.260071 194.366669,896.724976 
	C193.997406,896.430786 194.001480,896.002869 194.001480,896.002930 
z"/>
<path fill="#111216" opacity="1.000000" stroke="none" 
	d="
M135.233551,176.957977 
	C135.132767,178.038818 134.840103,179.380844 134.186310,180.830292 
	C134.230667,179.698196 134.636169,178.458664 135.233551,176.957977 
z"/>
<path fill="#111216" opacity="1.000000" stroke="none" 
	d="
M858.341064,885.994629 
	C858.827393,885.377808 859.628601,884.699890 860.802856,884.036987 
	C860.335999,884.679138 859.495911,885.306335 858.341064,885.994629 
z"/>
<path fill="#111216" opacity="1.000000" stroke="none" 
	d="
M137.985077,854.347412 
	C138.611267,854.850525 139.280869,855.673462 139.884537,856.870483 
	C139.221893,856.385437 138.625198,855.526367 137.985077,854.347412 
z"/>
<path fill="#111216" opacity="1.000000" stroke="none" 
	d="
M886.985229,169.665253 
	C886.374390,169.166412 885.709106,168.350922 885.093994,167.162598 
	C885.739685,167.642731 886.335205,168.495667 886.985229,169.665253 
z"/>
<path fill="#111216" opacity="1.000000" stroke="none" 
	d="
M883.127014,163.657257 
	C882.643677,163.410690 882.059998,162.891571 881.717529,162.195923 
	C882.314819,162.474472 882.670776,162.929596 883.127014,163.657257 
z"/>
<path fill="#111216" opacity="1.000000" stroke="none" 
	d="
M133.631943,181.043182 
	C133.730087,181.763031 133.563232,182.699768 133.055603,183.772598 
	C132.932205,183.025818 133.149567,182.142944 133.631943,181.043182 
z"/>
<path fill="#111216" opacity="1.000000" stroke="none" 
	d="
M136.716888,174.100967 
	C136.677582,174.786270 136.401810,175.669052 135.755280,176.521790 
	C135.749832,175.760635 136.115128,175.029556 136.716888,174.100967 
z"/>
<path fill="#303135" opacity="1.000000" stroke="none" 
	d="
M193.982300,895.746094 
	C194.001480,896.002869 193.997406,896.430786 194.010712,896.644287 
	C193.719604,896.776062 193.415207,896.694275 193.038055,896.363159 
	C193.163589,895.678955 193.361893,895.244019 193.560181,894.809082 
	C193.694504,895.035828 193.828827,895.262573 193.982300,895.746094 
z"/>
<path fill="#111216" opacity="1.000000" stroke="none" 
	d="
M848.354248,891.090820 
	C848.543823,890.779663 849.049255,890.439331 849.888977,890.126343 
	C849.705505,890.456299 849.187866,890.758972 848.354248,891.090820 
z"/>
<path fill="#111216" opacity="1.000000" stroke="none" 
	d="
M850.407837,890.190735 
	C850.586182,889.870239 851.076233,889.488953 851.910645,889.148926 
	C851.743225,889.503479 851.231445,889.816711 850.407837,890.190735 
z"/>
<path fill="#1A1C20" opacity="1.000000" stroke="none" 
	d="
M864.215210,143.939789 
	C863.943542,143.986343 863.529907,143.879318 863.066162,143.486206 
	C863.368408,143.395477 863.720825,143.590836 864.215210,143.939789 
z"/>
<path fill="#111216" opacity="1.000000" stroke="none" 
	d="
M852.428711,889.223999 
	C852.600891,888.907166 853.076172,888.512634 853.896729,888.143005 
	C853.738647,888.494080 853.235168,888.820190 852.428711,889.223999 
z"/>
<path fill="#111216" opacity="1.000000" stroke="none" 
	d="
M854.414368,888.205811 
	C854.569397,887.875549 855.028931,887.481201 855.824341,887.090698 
	C855.679810,887.443604 855.199402,887.792725 854.414368,888.205811 
z"/>
<path fill="#111216" opacity="1.000000" stroke="none" 
	d="
M856.347778,887.099670 
	C856.518860,886.818481 856.979614,886.467712 857.756470,886.075012 
	C857.594177,886.365356 857.115784,886.697754 856.347778,887.099670 
z"/>
<path fill="#1A1C20" opacity="1.000000" stroke="none" 
	d="
M855.938721,138.679810 
	C855.513855,138.756958 854.914124,138.581100 854.181702,138.111786 
	C854.620605,138.021149 855.192200,138.223984 855.938721,138.679810 
z"/>
<path fill="#111216" opacity="1.000000" stroke="none" 
	d="
M890.095825,175.639694 
	C889.804749,175.455627 889.447449,174.963913 889.072754,174.139328 
	C889.380066,174.314987 889.704773,174.823517 890.095825,175.639694 
z"/>
<path fill="#111216" opacity="1.000000" stroke="none" 
	d="
M137.700363,172.075439 
	C137.791000,172.492996 137.635925,173.092468 137.198929,173.833649 
	C137.096222,173.402695 137.275436,172.830017 137.700363,172.075439 
z"/>
<path fill="#111216" opacity="1.000000" stroke="none" 
	d="
M888.062927,171.677124 
	C887.793396,171.499054 887.461243,171.032120 887.076538,170.254898 
	C887.349426,170.425827 887.674805,170.907043 888.062927,171.677124 
z"/>
<path fill="#111216" opacity="1.000000" stroke="none" 
	d="
M140.563782,166.940521 
	C140.656494,167.404083 140.474945,168.035049 139.968369,168.789597 
	C139.858749,168.311432 140.074142,167.709671 140.563782,166.940521 
z"/>
<path fill="#111216" opacity="1.000000" stroke="none" 
	d="
M878.887085,157.782318 
	C878.692505,157.802994 878.386597,157.601761 878.050781,157.161621 
	C878.315308,157.084625 878.566895,157.297195 878.887085,157.782318 
z"/>
<path fill="#111216" opacity="1.000000" stroke="none" 
	d="
M866.147034,145.678802 
	C865.689209,145.643311 865.118347,145.366592 864.674683,144.762848 
	C865.212585,144.769730 865.623352,145.103653 866.147034,145.678802 
z"/>
<path fill="#111216" opacity="1.000000" stroke="none" 
	d="
M139.800385,857.410278 
	C140.100571,857.565674 140.493484,858.006958 140.919342,858.774414 
	C140.599213,858.632446 140.246155,858.164307 139.800385,857.410278 
z"/>
<path fill="#111216" opacity="1.000000" stroke="none" 
	d="
M141.835068,165.092407 
	C142.115875,165.210266 142.245911,165.424759 142.375946,165.639236 
	C142.238144,165.649612 142.100357,165.659973 141.760986,165.597534 
	C141.559418,165.524734 141.684296,165.189041 141.835068,165.092407 
z"/>
<path fill="#111216" opacity="1.000000" stroke="none" 
	d="
M141.376846,165.708313 
	C141.509521,165.927963 141.415802,166.305222 141.032898,166.784058 
	C140.879272,166.545715 141.014862,166.205811 141.376846,165.708313 
z"/>
<path fill="#111216" opacity="1.000000" stroke="none" 
	d="
M885.132690,166.605164 
	C884.912537,166.625992 884.578064,166.322693 884.148560,165.676331 
	C884.375122,165.649185 884.696777,165.965103 885.132690,166.605164 
z"/>
<path fill="#111216" opacity="1.000000" stroke="none" 
	d="
M138.640717,170.508209 
	C138.776489,170.746597 138.633240,171.182098 138.195007,171.795898 
	C138.053894,171.551239 138.207809,171.128296 138.640717,170.508209 
z"/>
<path fill="#111216" opacity="1.000000" stroke="none" 
	d="
M867.316406,879.088867 
	C867.242737,878.890381 867.425720,878.575745 867.860229,878.143372 
	C867.932190,878.341309 867.752625,878.657043 867.316406,879.088867 
z"/>
<path fill="#111216" opacity="1.000000" stroke="none" 
	d="
M141.798706,860.380066 
	C141.965378,860.363281 142.192459,860.560791 142.252716,860.867859 
	C142.085876,860.977478 141.859131,860.594360 141.798706,860.380066 
z"/>
<path fill="#111216" opacity="1.000000" stroke="none" 
	d="
M140.968933,859.308350 
	C141.193054,859.262756 141.472275,859.490295 141.803818,859.996643 
	C141.578766,860.044128 141.301392,859.812805 140.968933,859.308350 
z"/>
<path fill="#6DD54C" opacity="1.000000" stroke="none" 
	d="
M582.890869,427.510345 
	C582.724060,427.778564 582.557190,428.046783 582.616333,428.984131 
	C584.557495,441.437469 586.272705,453.221710 587.987915,465.005951 
	C588.003113,465.462036 588.018250,465.918091 588.063110,466.936340 
	C588.092834,467.498505 588.184448,467.944794 588.184448,467.944794 
	C590.118652,481.314056 592.006897,494.690155 594.001343,508.050446 
	C595.647888,519.080322 597.419983,530.091492 599.233887,541.801025 
	C599.544983,543.998779 599.758728,545.506470 599.972412,547.014160 
	C599.996460,547.471741 600.020508,547.929321 600.073975,549.019775 
	C600.375977,550.138306 600.648560,550.624084 600.921204,551.109802 
	C600.921204,551.109802 600.942261,551.019958 600.868042,551.458374 
	C602.889099,565.919312 604.984436,579.941833 607.079712,593.964355 
	C607.068848,594.430603 607.057983,594.896851 607.107300,596.020508 
	C607.428528,596.976746 607.689636,597.275513 607.950684,597.574341 
	C608.968140,606.345459 609.985535,615.116577 611.002991,623.887756 
	C611.444275,623.916809 611.885620,623.945923 612.326904,623.975037 
	C619.549988,593.883667 626.773010,563.792358 634.435791,533.277405 
	C634.957825,531.918457 635.040161,530.983032 635.122498,530.047668 
	C635.168335,529.481567 635.214172,528.915527 635.736206,528.068115 
	C636.180847,527.205811 636.149353,526.624695 636.117859,526.043640 
	C636.173950,525.480774 636.230042,524.917969 636.840088,523.996582 
	C638.746460,518.805786 640.189453,513.995850 641.389221,509.125946 
	C641.699402,507.866882 641.246765,506.419861 641.144592,505.059204 
	C647.759399,477.972443 654.351990,450.880249 661.007507,423.803497 
	C662.352661,418.330841 664.754944,413.479004 670.014465,410.632019 
	C679.561890,405.463989 690.059143,410.388885 693.087341,421.761261 
	C699.797913,446.962524 706.312439,472.215973 712.926941,497.442902 
	C715.453064,507.077179 718.033630,516.697144 720.768433,526.924072 
	C720.960205,527.705811 720.972778,527.887207 721.097900,528.456116 
	C722.550110,529.226685 723.889221,529.941650 725.229492,529.943848 
	C754.517639,529.991760 783.805908,529.960510 813.094116,529.944458 
	C813.094116,529.944519 813.015198,529.956360 813.163391,530.196167 
	C813.897095,530.618347 814.482544,530.800781 815.068054,530.983154 
	C815.391846,531.004211 815.656616,531.140320 816.068237,531.881714 
	C816.622375,532.560974 816.970581,532.749817 817.318848,532.938721 
	C817.622742,532.996277 817.832764,533.168396 817.981628,534.018677 
	C818.388550,535.376892 818.762878,536.171448 819.137146,536.965942 
	C819.137146,536.965942 819.053406,536.982056 819.144653,537.186218 
	C819.517334,537.587097 819.798767,537.783813 820.080139,537.980530 
	C820.080139,537.980530 820.009766,537.987732 820.014160,538.418701 
	C820.038696,541.355103 820.058777,543.860474 820.078857,546.365845 
	C820.078857,546.365845 820.112976,546.713013 819.871033,546.925903 
	C819.552551,547.220398 819.395447,547.338135 819.413086,547.377502 
	C819.499023,547.569031 819.631653,547.739685 819.747742,547.917725 
	C817.955444,550.024048 816.163147,552.130371 813.900879,554.525269 
	C813.259766,554.809937 813.088623,554.806030 812.752136,554.598450 
	C812.068420,554.653259 811.550110,554.911804 811.010864,555.126099 
	C810.989990,555.081909 811.081055,555.046204 810.607361,555.041382 
	C778.352234,555.025085 746.570740,555.000977 714.789368,555.039307 
	C713.212463,555.041199 711.636169,555.585022 709.643799,555.910645 
	C708.392395,555.857849 707.556702,555.770874 706.721069,555.683960 
	C699.789368,552.167664 696.663696,546.125977 694.765198,538.864197 
	C689.186218,517.524902 683.291504,496.268188 676.700195,474.798279 
	C675.556885,479.144318 674.325012,483.469269 673.283386,487.839569 
	C656.806580,556.973450 640.415894,626.128052 623.741577,695.214233 
	C622.752869,699.310791 620.376221,703.927856 617.185669,706.472473 
	C608.590332,713.327637 596.362122,708.016357 594.184814,697.025940 
	C593.316650,692.644043 592.777527,688.197021 592.375244,683.088623 
	C592.232788,678.158447 592.021484,673.882202 591.308228,669.691345 
	C590.697327,666.102539 589.511475,662.611633 588.579956,659.077393 
	C585.762085,640.753418 582.855713,622.442444 580.147644,604.102295 
	C576.271423,577.851013 572.575439,551.573120 568.737427,525.316101 
	C564.202148,494.288635 559.595825,463.271515 555.026184,432.249054 
	C554.663635,429.787720 554.346985,427.319641 554.298340,424.164795 
	C554.719910,422.501404 555.079529,421.496002 554.948242,420.559448 
	C553.917908,413.210144 552.772827,405.877045 551.704712,398.532928 
	C550.779602,392.172699 549.943359,385.799133 548.939148,379.451843 
	C548.870544,379.018372 547.723145,378.755585 547.077454,378.413422 
	C546.903198,378.509094 546.729004,378.604736 546.040894,379.007385 
	C545.616089,380.186005 545.705078,381.057648 545.794067,381.929291 
	C535.552673,445.697601 525.311279,509.465912 515.017273,574.042480 
	C512.262329,591.225525 509.560028,607.600342 506.857727,623.975098 
	C506.857727,623.975098 506.944946,623.961609 506.662781,624.087891 
	C505.915375,625.141541 505.450195,626.068909 504.985016,626.996277 
	C504.659607,627.393677 504.334198,627.791077 503.740875,628.607422 
	C503.293884,629.346741 503.114838,629.667114 502.935791,629.987488 
	C492.554047,637.664917 481.554871,635.294678 476.431427,623.292419 
	C471.358704,611.408997 467.536560,598.992004 463.152313,586.813965 
	C462.365540,584.628601 461.512817,582.466980 459.995178,580.213623 
	C458.942932,582.465759 458.586029,584.798645 458.229126,587.131531 
	C458.158447,587.552551 458.087769,587.973572 457.584106,588.771362 
	C455.767365,593.897888 454.234161,598.611267 453.069611,603.414124 
	C452.567841,605.483459 452.829468,607.737976 452.744293,609.908325 
	C452.721802,610.112976 452.699341,610.317566 452.237183,610.888428 
	C451.498047,613.157593 451.198578,615.060486 450.899078,616.963379 
	C450.929718,617.143433 450.960358,617.323486 450.939331,618.144409 
	C448.455078,628.834351 446.022491,638.883301 443.589935,648.932312 
	C443.404816,649.444214 443.219666,649.956116 442.935791,651.116333 
	C442.171844,654.833130 441.506622,657.901611 440.841431,660.970154 
	C440.841431,660.970154 440.931000,660.977051 440.668518,661.102173 
	C440.254059,661.814880 440.102112,662.402466 439.950195,662.990051 
	C439.950165,662.990051 440.005188,662.991394 439.791992,663.183228 
	C439.372559,663.914490 439.166290,664.454041 438.960022,664.993530 
	C435.143799,669.980652 430.573303,673.545715 423.819824,672.428467 
	C416.288635,671.182617 412.464844,666.244751 410.884003,659.108337 
	C402.964447,623.357910 395.009460,587.615417 387.076935,551.867859 
	C384.598541,540.698975 382.151245,529.523071 379.418030,517.653076 
	C376.081696,502.765594 373.017059,488.575409 369.636200,472.921112 
	C368.751953,475.826935 368.288574,477.349670 367.825195,478.872437 
	C367.825195,478.872437 367.859375,478.942047 367.627930,479.135376 
	C367.139282,480.198181 366.882111,481.067688 366.624908,481.937195 
	C359.421967,501.109283 352.299988,520.312439 344.965240,539.433960 
	C342.855591,544.933716 341.082886,550.820618 334.824646,554.419189 
	C332.788788,555.114502 331.358002,555.480164 329.621704,555.573975 
	C328.496674,555.202393 327.677155,555.015198 326.857605,555.015259 
	C290.046906,555.017822 253.236237,555.036926 216.425552,555.054016 
	C216.425552,555.054016 216.249649,555.215088 216.076660,554.976868 
	C215.627289,554.763855 215.350922,554.789062 215.074539,554.814270 
	C209.403076,552.602173 207.281906,548.022766 207.184494,542.382019 
	C207.072403,535.889404 210.481155,531.601624 216.977844,529.376831 
	C217.779694,529.705017 217.935684,529.811096 218.091888,529.811401 
	C250.630585,529.876160 283.169312,529.953735 315.707855,529.902954 
	C316.797150,529.901245 317.884399,528.601074 318.956268,527.686890 
	C318.939941,527.467529 318.888977,527.030518 318.888977,527.030518 
	C319.260712,526.239258 319.632416,525.447937 320.091187,524.067139 
	C320.156586,523.295532 320.134857,523.113525 320.113159,522.931580 
	C324.386871,512.382996 328.665833,501.836487 332.928497,491.283447 
	C333.547882,489.750061 334.089478,488.185272 334.818726,485.974518 
	C335.034363,484.892853 335.098358,484.471680 335.162354,484.050476 
	C335.162354,484.050476 335.084198,484.024597 335.364746,483.860748 
	C336.188232,482.150360 336.731110,480.603851 337.274017,479.057312 
	C337.520538,478.563049 337.767059,478.068787 338.099487,477.072449 
	C338.185394,476.570343 338.211670,476.103180 338.211670,476.103180 
	C338.211670,476.103180 338.152710,476.035828 338.420929,475.878693 
	C340.108337,471.817871 341.527527,467.914215 342.946716,464.010529 
	C342.946716,464.010529 343.118500,463.771027 343.338013,463.355957 
	C344.001526,461.633850 344.445557,460.326843 344.889587,459.019806 
	C344.889587,459.019806 345.059814,458.649536 345.280334,458.222961 
	C345.655914,457.202759 345.810974,456.609192 345.966034,456.015594 
	C345.966034,456.015594 346.131775,455.791260 346.362000,455.374390 
	C347.109650,453.317444 347.627075,451.677338 348.144501,450.037262 
	C348.144501,450.037262 348.062897,450.028870 348.316772,449.894409 
	C348.702698,449.178009 348.834717,448.596069 348.966797,448.014130 
	C348.966797,448.014130 349.125488,447.723541 349.353912,447.331177 
	C349.699219,446.301361 349.816132,445.663879 349.933044,445.026428 
	C349.933014,445.026428 350.054779,444.632874 350.322113,444.240784 
	C350.760254,443.238068 350.931061,442.627441 351.101898,442.016785 
	C351.101898,442.016785 351.026428,442.016418 351.293945,441.802521 
	C352.430176,438.749878 353.298859,435.911133 354.167542,433.072388 
	C354.167542,433.072388 354.024078,433.028503 354.411865,433.002045 
	C354.933350,432.343750 355.067108,431.711945 355.200836,431.080109 
	C355.200836,431.080109 355.115540,431.018097 355.418152,430.950684 
	C356.127380,429.925995 356.533997,428.968750 356.940643,428.011505 
	C359.985657,422.409912 363.140045,416.836182 370.382416,416.064301 
	C379.236267,415.120605 384.712891,419.380768 387.559204,429.963379 
	C387.264709,431.410339 387.016235,432.266724 387.184845,433.031097 
	C391.177094,451.128448 395.117798,469.238312 399.313324,487.288818 
	C400.319580,491.618134 402.200256,495.744202 403.678772,499.963745 
	C411.170868,532.645081 418.662933,565.326416 426.154999,598.007751 
	C426.411713,598.055664 426.668396,598.103577 426.925110,598.151489 
	C428.958435,590.157715 431.000458,582.166077 433.023010,574.169556 
	C436.073914,562.107422 439.052429,550.026428 442.197113,537.988831 
	C442.947510,535.116455 444.033844,532.288757 445.313446,529.606384 
	C448.138794,523.683777 452.734406,520.616333 459.551697,520.592163 
	C466.386993,520.567871 470.652618,524.152893 472.971344,529.884155 
	C476.331146,538.188599 479.029053,546.761414 481.988495,555.227112 
	C483.655640,559.996033 485.281036,564.779541 487.676819,569.423828 
	C491.403351,546.957886 495.160950,524.497070 498.848602,502.024841 
	C503.412567,474.212280 507.951172,446.395416 512.435791,418.569977 
	C514.677185,404.662750 516.774231,390.732269 518.979126,376.066162 
	C519.006287,374.883331 518.990906,374.446686 518.975586,374.010010 
	C518.975586,374.010010 519.134949,373.736420 519.309326,373.408539 
	C519.328857,372.696106 519.173950,372.311584 519.019043,371.927032 
	C519.019043,371.927032 518.982971,371.492584 519.325073,371.055115 
	C522.068481,356.093262 524.469849,341.568909 526.871155,327.044525 
	C526.945129,326.606689 527.019043,326.168854 527.301636,325.150940 
	C527.588989,323.728119 527.667664,322.885406 527.746338,322.042694 
	C529.492981,311.940186 531.245056,301.838654 532.984558,291.734924 
	C534.397522,283.527832 539.343384,279.011780 546.984497,278.973877 
	C554.804810,278.935089 560.667786,283.690613 561.914001,291.597198 
	C564.414001,307.458282 566.689087,323.354828 569.140503,340.046143 
	C570.536438,349.548920 571.848877,358.242249 573.161316,366.935577 
	C576.160156,386.768738 579.159058,406.601868 582.417236,426.884949 
	C582.676575,427.334900 582.890869,427.510345 582.890869,427.510345 
z"/>
<path fill="#FDFDFD" opacity="1.000000" stroke="none" 
	d="
M228.135880,287.039246 
	C228.457428,287.082001 228.733154,286.988953 229.303619,286.434235 
	C229.907303,285.830719 230.170395,285.553040 230.433472,285.275391 
	C230.433487,285.275391 230.204071,285.268433 230.532120,285.262939 
	C231.308548,284.884613 231.756943,284.511841 232.205322,284.139038 
	C232.205322,284.139038 232.109650,284.110657 232.419342,284.059631 
	C233.537369,283.370117 234.345673,282.731628 235.153992,282.093140 
	C235.153976,282.093109 235.067795,282.061584 235.379730,282.015869 
	C236.509140,281.342407 237.326584,280.714630 238.144028,280.086823 
	C238.144028,280.086823 238.058502,280.051147 238.370270,280.008820 
	C239.492294,279.331299 240.302567,278.696106 241.112839,278.060913 
	C241.112839,278.060913 241.040039,278.026703 241.313370,278.003387 
	C241.838364,277.723053 242.090042,277.466034 242.341705,277.209015 
	C242.341705,277.209015 242.141830,277.178223 242.444382,277.175934 
	C243.201889,276.800568 243.656830,276.427460 244.111786,276.054382 
	C244.111786,276.054382 244.041565,276.014679 244.352234,275.984375 
	C245.491074,275.330627 246.319275,274.707214 247.147461,274.083801 
	C247.147476,274.083801 247.068298,274.044678 247.351196,274.027771 
	C248.081467,273.654816 248.528824,273.298737 248.976196,272.942688 
	C254.426010,269.533203 259.887665,266.142456 265.322083,262.708679 
	C270.223724,259.611481 270.236511,258.109772 265.115723,255.060043 
	C257.577271,250.570480 249.947388,246.234055 242.345337,241.851654 
	C236.074234,238.236496 229.777985,234.664963 223.509094,231.045959 
	C214.803909,226.020493 213.592560,212.413742 221.287888,206.277527 
	C223.895386,204.198318 230.746582,204.709869 234.980103,207.235519 
	C252.477432,217.674164 270.020020,228.037537 287.467865,238.558136 
	C292.214081,241.419998 297.362091,244.080444 301.143372,247.979858 
	C308.776459,255.851410 305.568054,268.366882 295.406036,274.432678 
	C281.690247,282.619720 268.516693,291.711945 255.044327,300.312103 
	C251.402451,302.636932 247.512375,304.571198 243.752838,306.713928 
	C239.336075,309.231232 235.049194,312.013611 230.477493,314.204224 
	C228.574356,315.116180 226.080917,314.796173 223.383484,314.701843 
	C222.287338,313.867004 221.663605,313.366669 221.039856,312.866333 
	C219.966721,311.327667 218.893570,309.789001 217.468109,307.699280 
	C215.506851,302.413300 216.865280,298.160645 219.240753,294.073273 
	C220.105209,293.294647 220.969666,292.516052 222.233978,291.379211 
	C223.244659,290.523254 223.855499,290.025452 224.466339,289.527649 
	C224.371002,289.379974 224.275696,289.232269 224.567963,289.185211 
	C225.373734,288.905396 225.791931,288.524933 226.210129,288.144501 
	C226.210129,288.144501 226.076279,288.116394 226.381500,288.096436 
	C227.169785,287.730713 227.652832,287.384979 228.135880,287.039246 
z"/>
<path fill="#F9F9F9" opacity="1.000000" stroke="none" 
	d="
M349.976166,311.925079 
	C349.976166,311.925079 350.290222,312.150909 350.637543,312.377014 
	C351.347778,312.778870 351.710663,312.954620 352.073578,313.130402 
	C359.523804,319.669678 359.303589,326.742798 350.761963,333.301819 
	C335.722260,333.560974 321.376892,333.476532 307.031494,333.392090 
	C299.290070,327.846222 298.461700,321.238464 304.852509,314.124451 
	C305.862976,312.999664 307.788879,312.697266 310.089325,311.964111 
	C323.916809,311.917419 336.946503,311.921265 349.976166,311.925079 
z"/>
<path fill="#211A30" opacity="1.000000" stroke="none" 
	d="
M329.927216,555.845825 
	C331.358002,555.480164 332.788788,555.114502 334.572968,554.613159 
	C332.258636,555.651001 329.597351,557.829041 326.922211,557.846191 
	C291.388641,558.074402 255.853119,558.014832 220.318283,557.934082 
	C219.102570,557.931335 217.889053,556.956238 217.347046,556.200928 
	C255.322098,555.927002 292.624664,555.886414 329.927216,555.845825 
z"/>
<path fill="#211A30" opacity="1.000000" stroke="none" 
	d="
M706.985718,556.012512 
	C707.556702,555.770874 708.392395,555.857849 710.102173,555.992249 
	C742.448914,556.031311 773.921570,556.039673 805.394104,555.973328 
	C807.290405,555.969299 809.185425,555.369019 811.081055,555.046204 
	C811.081055,555.046204 810.989990,555.081909 811.335571,555.126343 
	C812.093323,555.047913 812.505371,554.925049 812.917480,554.802185 
	C813.088623,554.806030 813.259766,554.809937 813.683105,554.765259 
	C811.535522,555.810486 809.142151,557.839661 806.734924,557.856323 
	C775.626648,558.071472 744.516357,558.031433 713.406982,557.929810 
	C711.353088,557.923096 709.302551,556.894409 706.985718,556.012512 
z"/>
<path fill="#7AF250" opacity="1.000000" stroke="none" 
	d="
M318.972595,527.906250 
	C317.884399,528.601074 316.797150,529.901245 315.707855,529.902954 
	C283.169312,529.953735 250.630585,529.876160 218.091888,529.811401 
	C217.935684,529.811096 217.779694,529.705017 217.330994,529.355591 
	C217.038391,529.062805 217.111588,528.828613 217.528107,528.613953 
	C233.871826,528.328003 249.799057,528.261902 265.726227,528.183960 
	C283.475067,528.097046 301.223816,527.999268 318.972595,527.906250 
z"/>
<path fill="#7AF250" opacity="1.000000" stroke="none" 
	d="
M812.876343,529.685547 
	C783.805908,529.960510 754.517639,529.991760 725.229492,529.943848 
	C723.889221,529.941650 722.550110,529.226685 721.564697,528.513428 
	C750.913940,528.140930 779.908875,528.098816 808.903809,528.056641 
	C810.155396,528.513306 811.406921,528.970032 812.876343,529.685547 
z"/>
<path fill="#80FE52" opacity="1.000000" stroke="none" 
	d="
M329.621704,555.574097 
	C292.624664,555.886414 255.322098,555.927002 217.557800,555.961670 
	C216.973083,555.814209 216.850098,555.672546 216.576324,555.292419 
	C253.236237,555.036926 290.046906,555.017822 326.857605,555.015259 
	C327.677155,555.015198 328.496674,555.202393 329.621704,555.574097 
z"/>
<path fill="#76E74F" opacity="1.000000" stroke="none" 
	d="
M403.659607,499.584534 
	C402.200256,495.744202 400.319580,491.618134 399.313324,487.288818 
	C395.117798,469.238312 391.177094,451.128448 387.184845,433.031097 
	C387.016235,432.266724 387.264709,431.410339 387.573730,430.333069 
	C393.099243,453.114655 398.369812,476.160004 403.659607,499.584534 
z"/>
<path fill="#140126" opacity="1.000000" stroke="none" 
	d="
M318.956299,527.686890 
	C301.223816,527.999268 283.475067,528.097046 265.726227,528.183960 
	C249.799057,528.261902 233.871826,528.328003 217.482513,528.500122 
	C218.938828,528.070862 220.855820,527.084778 222.775894,527.078735 
	C254.506271,526.978821 286.237061,527.002075 318.428345,527.014160 
	C318.888977,527.030518 318.939941,527.467529 318.956299,527.686890 
z"/>
<path fill="#140126" opacity="1.000000" stroke="none" 
	d="
M809.191650,527.966553 
	C779.908875,528.098816 750.913940,528.140930 721.452148,528.125854 
	C720.972778,527.887207 720.960205,527.705811 720.946594,527.251648 
	C750.123962,526.987976 779.302307,526.996155 808.480652,527.014648 
	C808.934875,527.014954 809.388916,527.142334 809.843079,527.210327 
	C809.721924,527.432373 809.600708,527.654358 809.191650,527.966553 
z"/>
<path fill="#1F152E" opacity="1.000000" stroke="none" 
	d="
M507.182495,623.788818 
	C509.560028,607.600342 512.262329,591.225525 515.051025,574.453247 
	C515.422058,575.787354 516.181274,577.595337 515.916809,579.238586 
	C513.675049,593.169312 511.263733,607.072937 508.835999,620.972900 
	C508.674316,621.898621 507.962952,622.728271 507.182495,623.788818 
z"/>
<path fill="#1F152E" opacity="1.000000" stroke="none" 
	d="
M368.208740,478.979919 
	C368.288574,477.349670 368.751953,475.826935 369.636200,472.921112 
	C373.017059,488.575409 376.081696,502.765594 379.158936,517.361938 
	C378.466644,516.658630 377.382294,515.632996 377.115967,514.426758 
	C374.619873,503.122406 372.276428,491.784393 369.827332,480.469391 
	C369.713684,479.944214 369.017273,479.545197 368.208740,478.979919 
z"/>
<path fill="#76E74F" opacity="1.000000" stroke="none" 
	d="
M547.357544,378.755219 
	C547.723145,378.755585 548.870544,379.018372 548.939148,379.451843 
	C549.943359,385.799133 550.779602,392.172699 551.704712,398.532928 
	C552.772827,405.877045 553.917908,413.210144 554.948242,420.559448 
	C555.079529,421.496002 554.719910,422.501404 554.294434,423.737366 
	C551.879944,409.032227 549.758850,394.064636 547.357544,378.755219 
z"/>
<path fill="#1C122D" opacity="1.000000" stroke="none" 
	d="
M526.548828,327.226013 
	C524.469849,341.568909 522.068481,356.093262 519.341064,370.837708 
	C520.161194,362.742798 521.160339,354.404022 522.501404,346.120575 
	C523.517151,339.846313 524.968811,333.642609 526.548828,327.226013 
z"/>
<path fill="#1C122D" opacity="1.000000" stroke="none" 
	d="
M607.360596,593.695557 
	C604.984436,579.941833 602.889099,565.919312 600.821899,551.456909 
	C601.707092,554.602600 602.762146,558.154358 603.382812,561.780396 
	C605.018677,571.337280 606.487671,580.923157 607.953491,590.508179 
	C608.096436,591.443237 607.757080,592.452087 607.360596,593.695557 
z"/>
<path fill="#1C122D" opacity="1.000000" stroke="none" 
	d="
M588.281616,464.758301 
	C586.272705,453.221710 584.557495,441.437469 582.790527,429.177734 
	C583.645081,432.100800 584.886536,435.450409 585.391174,438.907562 
	C586.632996,447.415588 587.536072,455.973053 588.281616,464.758301 
z"/>
<path fill="#1F152E" opacity="1.000000" stroke="none" 
	d="
M443.951385,648.797424 
	C446.022491,638.883301 448.455078,628.834351 450.993500,618.412964 
	C451.384064,618.769836 452.043793,619.586487 451.897156,620.214966 
	C449.805908,629.175781 447.618683,638.114380 445.402222,647.045288 
	C445.255127,647.638000 444.685791,648.125854 443.951385,648.797424 
z"/>
<path fill="#000103" opacity="1.000000" stroke="none" 
	d="
M349.787231,311.582947 
	C336.946503,311.921265 323.916809,311.917419 310.466980,311.850403 
	C311.077576,311.213898 312.102783,310.153900 313.140015,310.141998 
	C324.243866,310.014313 335.349823,310.020294 346.454468,310.097137 
	C347.505005,310.104431 348.550507,310.842194 349.787231,311.582947 
z"/>
<path fill="#000103" opacity="1.000000" stroke="none" 
	d="
M307.234680,333.780914 
	C321.376892,333.476532 335.722260,333.560974 350.516449,333.495056 
	C349.894257,333.883301 348.826904,334.881897 347.751770,334.890289 
	C334.894562,334.990570 322.036133,334.953735 309.178223,334.903046 
	C308.597168,334.900787 308.017944,334.424988 307.234680,333.780914 
z"/>
<path fill="#1F152E" opacity="1.000000" stroke="none" 
	d="
M573.426941,366.648865 
	C571.848877,358.242249 570.536438,349.548920 569.276245,340.450623 
	C570.050964,342.029480 571.150085,343.962341 571.426697,346.006470 
	C572.341919,352.770081 572.960327,359.573822 573.426941,366.648865 
z"/>
<path fill="#33363B" opacity="1.000000" stroke="none" 
	d="
M259.998779,896.991943 
	C247.645233,896.984375 235.291702,896.976807 222.469025,896.733582 
	C221.999893,896.497925 221.999908,895.999878 221.999908,895.999878 
	C234.354187,895.999878 246.708466,895.999817 259.531433,896.247925 
	C260.000092,896.495972 259.998779,896.992004 259.998779,896.991943 
z"/>
<path fill="#78EE50" opacity="1.000000" stroke="none" 
	d="
M588.548645,659.467529 
	C589.511475,662.611633 590.697327,666.102539 591.308228,669.691345 
	C592.021484,673.882202 592.232788,678.158447 592.388672,682.671875 
	C590.916077,675.249939 589.716736,667.553833 588.548645,659.467529 
z"/>
<path fill="#76E74F" opacity="1.000000" stroke="none" 
	d="
M452.843384,609.532410 
	C452.829468,607.737976 452.567841,605.483459 453.069611,603.414124 
	C454.234161,598.611267 455.767365,593.897888 457.508301,589.083374 
	C456.224457,595.731201 454.583466,602.443848 452.843384,609.532410 
z"/>
<path fill="#33363B" opacity="1.000000" stroke="none" 
	d="
M746.626221,896.627686 
	C735.945068,896.922852 724.972778,896.934814 713.541504,896.928833 
	C715.129028,896.607300 717.175781,896.042542 719.221863,896.044922 
	C728.259644,896.055664 737.297302,896.229675 746.626221,896.627686 
z"/>
<path fill="#33363B" opacity="1.000000" stroke="none" 
	d="
M820.622925,896.625366 
	C810.942505,896.921326 800.970764,896.935059 790.539795,896.931152 
	C793.110718,896.609009 796.139465,896.064331 799.171082,896.048340 
	C806.223816,896.011169 813.277954,896.228699 820.622925,896.625366 
z"/>
<path fill="#78EE50" opacity="1.000000" stroke="none" 
	d="
M641.041626,505.432434 
	C641.246765,506.419861 641.699402,507.866882 641.389221,509.125946 
	C640.189453,513.995850 638.746460,518.805786 637.043213,523.795044 
	C638.107727,517.903198 639.523193,511.854431 641.041626,505.432434 
z"/>
<path fill="#111216" opacity="1.000000" stroke="none" 
	d="
M218.861069,294.080811 
	C216.865280,298.160645 215.506851,302.413300 217.192719,307.535400 
	C213.730225,304.592133 214.271286,298.415009 218.861069,294.080811 
z"/>
<path fill="#1F152E" opacity="1.000000" stroke="none" 
	d="
M342.593628,464.066071 
	C341.527527,467.914215 340.108337,471.817871 338.391113,475.912109 
	C339.475586,472.108978 340.858063,468.115295 342.593628,464.066071 
z"/>
<path fill="#33363B" opacity="1.000000" stroke="none" 
	d="
M305.626221,896.627563 
	C300.277985,896.922119 294.639008,896.933777 288.541962,896.927490 
	C293.834412,896.721191 299.584961,896.532898 305.626221,896.627563 
z"/>
<path fill="#1F152E" opacity="1.000000" stroke="none" 
	d="
M441.165863,660.793213 
	C441.506622,657.901611 442.171844,654.833130 442.954590,651.397461 
	C442.544830,654.225708 442.017578,657.420959 441.165863,660.793213 
z"/>
<path fill="#1F152E" opacity="1.000000" stroke="none" 
	d="
M353.844299,433.239288 
	C353.298859,435.911133 352.430176,438.749878 351.305664,441.838379 
	C351.873566,439.194183 352.697296,436.300171 353.844299,433.239288 
z"/>
<path fill="#76E74F" opacity="1.000000" stroke="none" 
	d="
M458.421326,586.823242 
	C458.586029,584.798645 458.942932,582.465759 459.664001,580.070923 
	C459.556610,582.177612 459.085083,584.346313 458.421326,586.823242 
z"/>
<path fill="#33363B" opacity="1.000000" stroke="none" 
	d="
M378.636780,896.630188 
	C375.931580,896.919189 372.950256,896.933167 369.525421,896.929199 
	C372.174805,896.725891 375.267731,896.540527 378.636780,896.630188 
z"/>
<path fill="#33363B" opacity="1.000000" stroke="none" 
	d="
M218.998764,896.991821 
	C215.990005,896.976562 212.981247,896.961243 209.528351,896.927429 
	C212.092316,896.605835 215.100403,896.302795 218.554291,896.247803 
	C219.000076,896.495850 218.998764,896.991821 218.998764,896.991821 
z"/>
<path fill="#33363B" opacity="1.000000" stroke="none" 
	d="
M559.646545,896.635559 
	C557.264954,896.920349 554.613647,896.932129 551.523682,896.925598 
	C553.848938,896.725647 556.612854,896.544067 559.646545,896.635559 
z"/>
<path fill="#33363B" opacity="1.000000" stroke="none" 
	d="
M488.645996,896.634888 
	C486.264191,896.920288 483.612823,896.932617 480.522644,896.926758 
	C482.848022,896.726318 485.612183,896.544067 488.645996,896.634888 
z"/>
<path fill="#33363B" opacity="1.000000" stroke="none" 
	d="
M504.647339,896.636047 
	C502.265106,896.921326 499.613220,896.933350 496.522522,896.927002 
	C498.848358,896.726685 501.613037,896.544678 504.647339,896.636047 
z"/>
<path fill="#76E74F" opacity="1.000000" stroke="none" 
	d="
M450.983337,616.781982 
	C451.198578,615.060486 451.498047,613.157593 452.087280,611.158386 
	C452.307770,611.561157 452.238556,612.060242 452.065857,613.163818 
	C451.800262,614.488464 451.638123,615.208496 451.476013,615.928589 
	C451.255951,616.101624 451.119812,616.325623 450.983337,616.781982 
z"/>
<path fill="#33363B" opacity="1.000000" stroke="none" 
	d="
M633.649170,896.637817 
	C631.266174,896.922974 628.613647,896.934448 625.522217,896.927490 
	C627.848694,896.727417 630.614136,896.545776 633.649170,896.637817 
z"/>
<path fill="#33363B" opacity="1.000000" stroke="none" 
	d="
M784.648315,896.637146 
	C782.265625,896.922363 779.613403,896.933960 776.522217,896.927246 
	C778.848450,896.727173 781.613586,896.545349 784.648315,896.637146 
z"/>
<path fill="#7AF250" opacity="1.000000" stroke="none" 
	d="
M820.362305,546.059387 
	C820.058777,543.860474 820.038696,541.355103 820.027588,538.385986 
	C820.239563,540.532410 820.442627,543.142700 820.362305,546.059387 
z"/>
<path fill="#33363B" opacity="1.000000" stroke="none" 
	d="
M696.654907,896.638672 
	C694.593811,896.921143 692.270752,896.933472 689.515137,896.927734 
	C691.519348,896.729248 693.956177,896.548889 696.654907,896.638672 
z"/>
<path fill="#33363B" opacity="1.000000" stroke="none" 
	d="
M442.664917,896.641907 
	C440.921661,896.920471 438.926819,896.933105 436.506775,896.927734 
	C438.192139,896.731873 440.302734,896.553894 442.664917,896.641907 
z"/>
<path fill="#33363B" opacity="1.000000" stroke="none" 
	d="
M576.667114,896.643921 
	C574.923462,896.921875 572.928162,896.933594 570.507690,896.927124 
	C572.193542,896.731812 574.304504,896.554688 576.667114,896.643921 
z"/>
<path fill="#1F152E" opacity="1.000000" stroke="none" 
	d="
M336.910522,479.169006 
	C336.731110,480.603851 336.188232,482.150360 335.363129,483.901855 
	C335.569611,482.498138 336.058289,480.889435 336.910522,479.169006 
z"/>
<path fill="#33363B" opacity="1.000000" stroke="none" 
	d="
M756.666992,896.643799 
	C754.922974,896.922302 752.927307,896.934570 750.506226,896.928772 
	C752.192383,896.732971 754.303894,896.555237 756.666992,896.643799 
z"/>
<path fill="#1F152E" opacity="1.000000" stroke="none" 
	d="
M347.781677,450.183899 
	C347.627075,451.677338 347.109650,453.317444 346.334442,455.237671 
	C346.524048,453.788727 346.971436,452.059601 347.781677,450.183899 
z"/>
<path fill="#33363B" opacity="1.000000" stroke="none" 
	d="
M352.665588,896.642273 
	C350.922272,896.920715 348.927368,896.933167 346.507324,896.927368 
	C348.192810,896.731567 350.303375,896.553894 352.665588,896.642273 
z"/>
<path fill="#33363B" opacity="1.000000" stroke="none" 
	d="
M415.678284,896.645874 
	C414.248627,896.919739 412.580017,896.932556 410.496399,896.927002 
	C411.867371,896.734131 413.653381,896.559509 415.678284,896.645874 
z"/>
<path fill="#33363B" opacity="1.000000" stroke="none" 
	d="
M597.988831,896.922058 
	C596.298889,896.929443 594.609009,896.936829 592.501343,896.925354 
	C593.789062,896.604309 595.494385,896.302185 597.599243,896.230591 
	C597.998657,896.461121 597.988831,896.922058 597.988831,896.922058 
z"/>
<path fill="#1F152E" opacity="1.000000" stroke="none" 
	d="
M344.516205,459.097473 
	C344.445557,460.326843 344.001526,461.633850 343.319885,463.209717 
	C343.435791,462.044067 343.789307,460.609619 344.516205,459.097473 
z"/>
<path fill="#1C122D" opacity="1.000000" stroke="none" 
	d="
M527.434204,322.098938 
	C527.667664,322.885406 527.588989,323.728119 527.311829,324.817871 
	C527.116211,324.095001 527.119080,323.125061 527.434204,322.098938 
z"/>
<path fill="#111216" opacity="1.000000" stroke="none" 
	d="
M240.739532,278.052551 
	C240.302567,278.696106 239.492294,279.331299 238.380707,280.053955 
	C238.841690,279.442352 239.603973,278.743256 240.739532,278.052551 
z"/>
<path fill="#1F152E" opacity="1.000000" stroke="none" 
	d="
M505.340149,626.947388 
	C505.450195,626.068909 505.915375,625.141541 506.645905,624.047058 
	C506.505920,624.886169 506.100616,625.892273 505.340149,626.947388 
z"/>
<path fill="#111216" opacity="1.000000" stroke="none" 
	d="
M246.774323,274.071289 
	C246.319275,274.707214 245.491074,275.330627 244.355438,276.024567 
	C244.832382,275.416351 245.616776,274.737610 246.774323,274.071289 
z"/>
<path fill="#111216" opacity="1.000000" stroke="none" 
	d="
M237.769684,280.055237 
	C237.326584,280.714630 236.509140,281.342407 235.388214,282.060974 
	C235.854965,281.442413 236.625153,280.733032 237.769684,280.055237 
z"/>
<path fill="#1C122D" opacity="1.000000" stroke="none" 
	d="
M600.265137,546.776184 
	C599.758728,545.506470 599.544983,543.998779 599.500000,542.045532 
	C599.965088,543.246033 600.261414,544.892090 600.265137,546.776184 
z"/>
<path fill="#111216" opacity="1.000000" stroke="none" 
	d="
M234.774506,282.063324 
	C234.345673,282.731628 233.537369,283.370117 232.429535,284.108490 
	C232.885025,283.483398 233.640015,282.758453 234.774506,282.063324 
z"/>
<path fill="#78EE50" opacity="1.000000" stroke="none" 
	d="
M635.018982,530.336792 
	C635.040161,530.983032 634.957825,531.918457 634.578613,532.904907 
	C634.493042,532.179260 634.704285,531.402527 635.018982,530.336792 
z"/>
<path fill="#33363B" opacity="1.000000" stroke="none" 
	d="
M320.696930,896.652466 
	C319.573883,896.920166 318.228577,896.933044 316.481384,896.927490 
	C317.544556,896.738586 319.009613,896.568054 320.696930,896.652466 
z"/>
<path fill="#33363B" opacity="1.000000" stroke="none" 
	d="
M387.696655,896.652222 
	C386.574738,896.918579 385.230835,896.930237 383.485748,896.922363 
	C384.547913,896.734375 386.011292,896.565918 387.696655,896.652222 
z"/>
<path fill="#1F152E" opacity="1.000000" stroke="none" 
	d="
M356.592682,428.064667 
	C356.533997,428.968750 356.127380,429.925995 355.429199,431.002228 
	C355.506683,430.120087 355.875702,429.118958 356.592682,428.064667 
z"/>
<path fill="#111216" opacity="1.000000" stroke="none" 
	d="
M221.047409,313.208069 
	C221.663605,313.366669 222.287338,313.867004 223.006683,314.669189 
	C222.419861,314.497314 221.737411,314.023560 221.047409,313.208069 
z"/>
<path fill="#303135" opacity="1.000000" stroke="none" 
	d="
M609.015930,896.882263 
	C607.944763,896.916382 606.873657,896.950500 605.401367,896.740234 
	C605.000183,896.495850 605.000183,895.999817 605.000183,895.999756 
	C606.066223,895.999390 607.132324,895.998962 608.600708,896.219604 
	C609.002991,896.440735 609.015930,896.882263 609.015930,896.882263 
z"/>
<path fill="#303135" opacity="1.000000" stroke="none" 
	d="
M598.390015,896.947205 
	C597.988831,896.922058 597.998657,896.461121 597.999329,896.230591 
	C599.066528,895.999573 600.133057,895.999084 601.599731,896.246216 
	C601.999878,896.493896 602.001831,896.987854 602.001831,896.987793 
	C600.931641,896.982666 599.861450,896.977539 598.390015,896.947205 
z"/>
<path fill="#111216" opacity="1.000000" stroke="none" 
	d="
M248.803802,272.704956 
	C248.528824,273.298737 248.081467,273.654816 247.353561,274.071869 
	C247.592484,273.577667 248.111938,273.022461 248.803802,272.704956 
z"/>
<path fill="#111216" opacity="1.000000" stroke="none" 
	d="
M224.107208,289.400757 
	C223.855499,290.025452 223.244659,290.523254 222.345566,291.104736 
	C222.620895,290.550262 223.184494,289.912048 224.107208,289.400757 
z"/>
<path fill="#33363B" opacity="1.000000" stroke="none" 
	d="
M769.751221,896.670044 
	C769.210999,896.917236 768.498596,896.930054 767.431152,896.923889 
	C767.910461,896.748535 768.744751,896.592102 769.751221,896.670044 
z"/>
<path fill="#33363B" opacity="1.000000" stroke="none" 
	d="
M406.752747,896.671753 
	C406.211853,896.919006 405.498749,896.931519 404.430206,896.925415 
	C404.910034,896.750183 405.745239,896.593567 406.752747,896.671753 
z"/>
<path fill="#33363B" opacity="1.000000" stroke="none" 
	d="
M617.750183,896.668884 
	C617.210327,896.916199 616.498169,896.929504 615.431152,896.923828 
	C615.910156,896.748169 616.744080,896.591553 617.750183,896.668884 
z"/>
<path fill="#1F152E" opacity="1.000000" stroke="none" 
	d="
M451.794983,615.845459 
	C451.638123,615.208496 451.800262,614.488464 452.077179,613.418274 
	C452.165985,613.966187 452.139984,614.864258 451.794983,615.845459 
z"/>
<path fill="#1F152E" opacity="1.000000" stroke="none" 
	d="
M366.963806,481.798096 
	C366.882111,481.067688 367.139282,480.198181 367.661743,479.116394 
	C367.718872,479.822418 367.510773,480.740723 366.963806,481.798096 
z"/>
<path fill="#33363B" opacity="1.000000" stroke="none" 
	d="
M602.376343,896.992310 
	C602.001831,896.987854 601.999878,896.493896 601.999878,896.246826 
	C602.749878,895.999817 603.500000,895.999817 604.625122,895.999817 
	C605.000183,895.999817 605.000183,896.495850 604.999146,896.741882 
	C604.249084,896.990906 603.500000,896.993896 602.376343,896.992310 
z"/>
<path fill="#33363B" opacity="1.000000" stroke="none" 
	d="
M265.723206,896.656921 
	C265.193268,896.926819 264.463379,896.947083 263.366699,896.732544 
	C262.999878,896.497864 262.999939,895.999878 262.999939,895.999878 
	C263.841064,896.135681 264.682159,896.271423 265.723206,896.656921 
z"/>
<path fill="#303135" opacity="1.000000" stroke="none" 
	d="
M262.624939,895.999878 
	C262.999939,895.999878 262.999878,896.497864 263.000549,896.744873 
	C262.250732,896.994080 261.500214,896.996338 260.374237,896.995361 
	C259.998779,896.992004 260.000092,896.495972 260.000061,896.247925 
	C260.750031,895.999878 261.500000,895.999878 262.624939,895.999878 
z"/>
<path fill="#76E74F" opacity="1.000000" stroke="none" 
	d="
M545.863953,381.568604 
	C545.705078,381.057648 545.616089,380.186005 545.785278,379.160706 
	C546.006897,379.740692 545.970398,380.474304 545.863953,381.568604 
z"/>
<path fill="#7AF250" opacity="1.000000" stroke="none" 
	d="
M819.266479,536.626160 
	C818.762878,536.171448 818.388550,535.376892 818.024658,534.225281 
	C818.488647,534.674255 818.942200,535.480286 819.266479,536.626160 
z"/>
<path fill="#33363B" opacity="1.000000" stroke="none" 
	d="
M529.751709,896.670654 
	C529.211792,896.916870 528.499878,896.929077 527.433350,896.921509 
	C527.912354,896.746704 528.745972,896.591614 529.751709,896.670654 
z"/>
<path fill="#303135" opacity="1.000000" stroke="none" 
	d="
M219.374069,896.995361 
	C218.998764,896.991821 219.000076,896.495850 219.000061,896.247864 
	C219.750031,895.999878 220.500000,895.999878 221.624939,895.999878 
	C221.999908,895.999878 221.999893,896.497925 222.000549,896.744934 
	C221.250595,896.994324 220.499985,896.996643 219.374069,896.995361 
z"/>
<path fill="#33363B" opacity="1.000000" stroke="none" 
	d="
M466.796600,896.693665 
	C466.515564,896.915588 466.102295,896.927612 465.379974,896.921753 
	C465.602081,896.763794 466.133209,896.623779 466.796600,896.693665 
z"/>
<path fill="#33363B" opacity="1.000000" stroke="none" 
	d="
M536.795532,896.692017 
	C536.514893,896.913635 536.102173,896.925903 535.380798,896.919922 
	C535.602539,896.761963 536.132996,896.622253 536.795532,896.692017 
z"/>
<path fill="#111216" opacity="1.000000" stroke="none" 
	d="
M231.856171,284.116058 
	C231.756943,284.511841 231.308548,284.884613 230.577805,285.368195 
	C230.699310,285.016998 231.103165,284.555054 231.856171,284.116058 
z"/>
<path fill="#1F152E" opacity="1.000000" stroke="none" 
	d="
M334.912598,484.137695 
	C335.098358,484.471680 335.034363,484.892853 334.867371,485.616852 
	C334.730530,485.354736 334.696686,484.789825 334.912598,484.137695 
z"/>
<path fill="#1F152E" opacity="1.000000" stroke="none" 
	d="
M345.707214,456.203827 
	C345.810974,456.609192 345.655914,457.202759 345.282928,458.019196 
	C345.192780,457.625366 345.320557,457.008728 345.707214,456.203827 
z"/>
<path fill="#1F152E" opacity="1.000000" stroke="none" 
	d="
M348.714355,448.186401 
	C348.834717,448.596069 348.702698,449.178009 348.322845,449.934998 
	C348.204010,449.526245 348.333008,448.942474 348.714355,448.186401 
z"/>
<path fill="#1F152E" opacity="1.000000" stroke="none" 
	d="
M349.672089,445.234467 
	C349.816132,445.663879 349.699219,446.301361 349.338470,447.166351 
	C349.200134,446.743439 349.305634,446.092957 349.672089,445.234467 
z"/>
<path fill="#1F152E" opacity="1.000000" stroke="none" 
	d="
M354.904907,431.206177 
	C355.067108,431.711945 354.933350,432.343750 354.474701,433.042999 
	C354.302826,432.517700 354.455902,431.924957 354.904907,431.206177 
z"/>
<path fill="#1C122D" opacity="1.000000" stroke="none" 
	d="
M518.745117,374.140320 
	C518.990906,374.446686 519.006287,374.883331 518.968384,375.643372 
	C518.781616,375.401398 518.648132,374.836029 518.745117,374.140320 
z"/>
<path fill="#111216" opacity="1.000000" stroke="none" 
	d="
M225.857147,288.118713 
	C225.791931,288.524933 225.373734,288.905396 224.692841,289.417419 
	C224.788147,289.063660 225.146164,288.578308 225.857147,288.118713 
z"/>
<path fill="#111216" opacity="1.000000" stroke="none" 
	d="
M227.804626,287.057556 
	C227.652832,287.384979 227.169785,287.730713 226.388977,288.164398 
	C226.551926,287.860199 227.012650,287.468048 227.804626,287.057556 
z"/>
<path fill="#1F152E" opacity="1.000000" stroke="none" 
	d="
M350.816101,442.183228 
	C350.931061,442.627441 350.760254,443.238068 350.326477,444.034882 
	C350.219147,443.597260 350.374756,442.973450 350.816101,442.183228 
z"/>
<path fill="#111216" opacity="1.000000" stroke="none" 
	d="
M243.780914,276.086670 
	C243.656830,276.427460 243.201889,276.800568 242.464417,277.275024 
	C242.604599,276.957306 243.027328,276.538147 243.780914,276.086670 
z"/>
<path fill="#1C122D" opacity="1.000000" stroke="none" 
	d="
M600.933838,550.817139 
	C600.648560,550.624084 600.375977,550.138306 600.137756,549.358032 
	C600.430298,549.550476 600.688416,550.037476 600.933838,550.817139 
z"/>
<path fill="#1F152E" opacity="1.000000" stroke="none" 
	d="
M440.217896,662.827820 
	C440.102112,662.402466 440.254059,661.814880 440.661591,661.057800 
	C440.773315,661.480713 440.629456,662.073181 440.217896,662.827820 
z"/>
<path fill="#1F152E" opacity="1.000000" stroke="none" 
	d="
M439.220032,664.833374 
	C439.166290,664.454041 439.372559,663.914490 439.776794,663.160278 
	C439.809814,663.521423 439.644928,664.097351 439.220032,664.833374 
z"/>
<path fill="#7AF250" opacity="1.000000" stroke="none" 
	d="
M814.899292,530.726562 
	C814.482544,530.800781 813.897095,530.618347 813.164062,530.156250 
	C813.587891,530.074402 814.159180,530.272217 814.899292,530.726562 
z"/>
<path fill="#78EE50" opacity="1.000000" stroke="none" 
	d="
M636.026001,526.355286 
	C636.149353,526.624695 636.180847,527.205811 635.939087,527.862793 
	C635.755310,527.514771 635.844727,527.090881 636.026001,526.355286 
z"/>
<path fill="#80FE52" opacity="1.000000" stroke="none" 
	d="
M215.306320,554.925049 
	C215.350922,554.789062 215.627289,554.763855 215.976593,554.911987 
	C215.879044,555.068909 215.708572,555.052368 215.306320,554.925049 
z"/>
<path fill="#33363B" opacity="1.000000" stroke="none" 
	d="
M609.246338,896.902832 
	C609.015930,896.882263 609.002991,896.440735 609.000244,896.219910 
	C609.301086,896.083740 609.550720,896.249573 609.842651,896.700928 
	C609.939026,896.905273 609.476746,896.923340 609.246338,896.902832 
z"/>
<path fill="#1F152E" opacity="1.000000" stroke="none" 
	d="
M503.188721,629.854980 
	C503.114838,629.667114 503.293884,629.346741 503.704712,628.870239 
	C503.771545,629.050293 503.606567,629.386414 503.188721,629.854980 
z"/>
<path fill="#1C122D" opacity="1.000000" stroke="none" 
	d="
M607.902832,597.278931 
	C607.689636,597.275513 607.428528,596.976746 607.162109,596.366089 
	C607.389526,596.364014 607.622253,596.673767 607.902832,597.278931 
z"/>
<path fill="#111216" opacity="1.000000" stroke="none" 
	d="
M242.053955,277.243805 
	C242.090042,277.466034 241.838364,277.723053 241.313995,278.043579 
	C241.282928,277.830933 241.524567,277.554779 242.053955,277.243805 
z"/>
<path fill="#140126" opacity="1.000000" stroke="none" 
	d="
M319.932190,523.026367 
	C320.134857,523.113525 320.156586,523.295532 320.082855,523.735352 
	C319.820190,523.802979 319.640320,523.621216 319.500488,523.412720 
	C319.481476,523.384399 319.662689,523.221741 319.932190,523.026367 
z"/>
<path fill="#111216" opacity="1.000000" stroke="none" 
	d="
M230.117798,285.306641 
	C230.170395,285.553040 229.907303,285.830719 229.370758,286.219727 
	C229.332230,286.000000 229.567169,285.668976 230.117798,285.306641 
z"/>
<path fill="#303135" opacity="1.000000" stroke="none" 
	d="
M197.881927,895.769409 
	C197.961319,895.922058 197.502625,895.943420 197.274292,895.925537 
	C197.298141,895.810608 197.550354,895.713623 197.881927,895.769409 
z"/>
<path fill="#000103" opacity="1.000000" stroke="none" 
	d="
M351.928009,312.858765 
	C351.710663,312.954620 351.347778,312.778870 350.827332,312.339691 
	C351.040649,312.246582 351.411560,312.416870 351.928009,312.858765 
z"/>
<path fill="#1C122D" opacity="1.000000" stroke="none" 
	d="
M519.032593,372.301147 
	C519.173950,372.311584 519.328857,372.696106 519.288696,373.251587 
	C519.077759,373.173462 519.061890,372.924377 519.032593,372.301147 
z"/>
<path fill="#7AF250" opacity="1.000000" stroke="none" 
	d="
M819.842896,547.703308 
	C819.631653,547.739685 819.499023,547.569031 819.413086,547.377502 
	C819.395447,547.338135 819.552551,547.220398 819.787842,547.079224 
	C819.946655,547.019714 819.938110,547.488892 819.842896,547.703308 
z"/>
<path fill="#1C122D" opacity="1.000000" stroke="none" 
	d="
M582.582764,427.233032 
	C582.695679,426.958405 582.902405,426.785645 583.109070,426.612854 
	C583.126892,426.805786 583.144714,426.998749 583.026672,427.351013 
	C582.890869,427.510345 582.676575,427.334900 582.582764,427.233032 
z"/>
<path fill="#7AF250" opacity="1.000000" stroke="none" 
	d="
M820.015259,537.684753 
	C819.798767,537.783813 819.517334,537.587097 819.144043,537.143555 
	C819.351501,537.060852 819.650940,537.224915 820.015259,537.684753 
z"/>
<path fill="#7AF250" opacity="1.000000" stroke="none" 
	d="
M817.163086,532.690552 
	C816.970581,532.749817 816.622375,532.560974 816.153198,532.093750 
	C816.357300,532.024414 816.682312,532.233459 817.163086,532.690552 
z"/>
<path fill="#1C122D" opacity="1.000000" stroke="none" 
	d="
M588.331299,467.863098 
	C588.184448,467.944794 588.092834,467.498505 588.125549,467.273071 
	C588.264893,467.292236 588.371521,467.536804 588.331299,467.863098 
z"/>
<path fill="#1F152E" opacity="1.000000" stroke="none" 
	d="
M338.009094,476.135376 
	C338.211670,476.103180 338.185394,476.570343 338.092712,476.785156 
	C337.834290,476.810150 337.668579,476.620331 337.502869,476.430481 
	C337.604065,476.342834 337.705261,476.255219 338.009094,476.135376 
z"/>
<path fill="#80FE52" opacity="1.000000" stroke="none" 
	d="
M810.607361,555.041382 
	C809.185425,555.369019 807.290405,555.969299 805.394104,555.973328 
	C773.921570,556.039673 742.448914,556.031311 710.517944,555.958069 
	C711.636169,555.585022 713.212463,555.041199 714.789368,555.039307 
	C746.570740,555.000977 778.352234,555.025085 810.607361,555.041382 
z"/>
<path fill="#80FE52" opacity="1.000000" stroke="none" 
	d="
M812.752136,554.598450 
	C812.505371,554.925049 812.093323,555.047913 811.356506,555.170532 
	C811.550110,554.911804 812.068420,554.653259 812.752136,554.598450 
z"/>
</svg>